<svg width="207" height="61" viewBox="0 0 207 61" fill="none" xmlns="http://www.w3.org/2000/svg">
<g clip-path="url(#clip0_41_2039)">
<path d="M7.64 0H198.48C202.69 0 206.12 3.42 206.12 7.64V52.98C206.12 57.2 202.7 60.62 198.48 60.62H7.64C3.43 60.62 0 57.2 0 52.98V7.64C0 3.42 3.42 0 7.64 0Z" fill="#808082"/>
<path d="M102.8 13.2098C103.27 13.1098 103.89 13.0498 104.52 13.0498C105.5 13.0498 106.27 13.1898 106.82 13.6998C107.32 14.1498 107.54 14.8398 107.54 15.5598C107.54 16.4798 107.26 17.1298 106.82 17.5998C106.29 18.1598 105.44 18.4098 104.76 18.4098C104.65 18.4098 104.54 18.4098 104.43 18.4098V21.5698H102.79V13.2198L102.8 13.2098ZM104.44 17.0698C104.53 17.0898 104.61 17.0898 104.71 17.0898C105.54 17.0898 105.91 16.4998 105.91 15.7098C105.91 14.9698 105.61 14.3898 104.84 14.3898C104.68 14.3898 104.53 14.4098 104.43 14.4498V17.0798L104.44 17.0698Z" fill="white"/>
<path d="M108.23 17.2601C108.23 16.6501 108.2 15.9801 108.18 15.4101H109.61L109.69 16.3101H109.74C110.01 15.6501 110.51 15.3101 110.96 15.3101C111.13 15.3101 111.21 15.3201 111.31 15.3401V16.9701C111.21 16.9501 111.1 16.9501 110.95 16.9501C110.61 16.9501 110.13 17.1901 109.96 17.8201C109.92 17.9601 109.89 18.1801 109.89 18.4401V21.5601H108.24V17.2601H108.23Z" fill="white"/>
<path d="M116.24 18.4701C116.24 21.0301 114.82 21.6701 113.89 21.6701C112.42 21.6701 111.54 20.5101 111.54 18.5101C111.54 16.3001 112.7 15.3101 113.92 15.3101C115.37 15.3101 116.24 16.5301 116.24 18.4701ZM113.18 18.4801C113.18 19.5301 113.35 20.4201 113.94 20.4201C114.47 20.4201 114.61 19.3801 114.61 18.4801C114.61 17.6301 114.47 16.5601 113.91 16.5601C113.31 16.5601 113.18 17.6301 113.18 18.4801Z" fill="white"/>
<path d="M121.52 12.8599V19.7399C121.52 20.3199 121.55 20.9899 121.57 21.5599H120.15L120.06 20.8599H120.03C119.8 21.2999 119.31 21.6599 118.75 21.6599C117.44 21.6599 116.84 20.2099 116.84 18.4999C116.84 16.3599 117.78 15.3099 118.82 15.3099C119.37 15.3099 119.7 15.5799 119.86 15.9299H119.88V12.8599H121.52ZM119.87 17.7699C119.87 17.6599 119.87 17.5299 119.85 17.4099C119.79 17.0299 119.6 16.6899 119.26 16.6899C118.68 16.6899 118.47 17.5299 118.47 18.5299C118.47 19.6999 118.79 20.3099 119.25 20.3099C119.46 20.3099 119.69 20.1999 119.82 19.7799C119.86 19.6799 119.87 19.5499 119.87 19.3999V17.7799V17.7699Z" fill="white"/>
<path d="M127.05 19.6899C127.05 20.3499 127.08 20.9899 127.1 21.5699H125.68L125.59 20.9199H125.56C125.28 21.3299 124.78 21.6699 124.14 21.6699C122.97 21.6699 122.5 20.8099 122.5 19.1499V15.4199H124.15V18.9699C124.15 19.7799 124.31 20.2999 124.77 20.2999C125.05 20.2999 125.23 20.0899 125.31 19.8799C125.36 19.7599 125.41 19.5699 125.41 19.3599V15.4299H127.06V19.7099L127.05 19.6899Z" fill="white"/>
<path d="M131.52 21.4601C131.35 21.5401 130.94 21.6401 130.47 21.6401C128.91 21.6401 127.89 20.5601 127.89 18.5501C127.89 16.6501 129.01 15.3301 130.71 15.3301C131.1 15.3301 131.45 15.4201 131.61 15.4901L131.39 16.7801C131.25 16.7301 131.05 16.6701 130.78 16.6701C129.99 16.6701 129.52 17.4201 129.52 18.5001C129.52 19.5801 129.99 20.3001 130.76 20.3001C131 20.3001 131.2 20.2601 131.38 20.1701L131.52 21.4601Z" fill="white"/>
<path d="M134.22 13.75V15.41H135.42V16.58H134.22V19.39C134.22 20.1 134.52 20.28 134.84 20.28C135 20.28 135.13 20.27 135.27 20.24V21.53C135.06 21.59 134.71 21.64 134.28 21.64C133.8 21.64 133.39 21.53 133.09 21.25C132.75 20.93 132.57 20.46 132.57 19.49V16.58H131.85V15.41H132.57V14.15L134.22 13.76V13.75Z" fill="white"/>
<path d="M140.47 18.4701C140.47 21.0301 139.05 21.6701 138.12 21.6701C136.65 21.6701 135.77 20.5101 135.77 18.5101C135.77 16.3001 136.93 15.3101 138.15 15.3101C139.6 15.3101 140.47 16.5301 140.47 18.4701ZM137.41 18.4801C137.41 19.5301 137.58 20.4201 138.17 20.4201C138.7 20.4201 138.84 19.3801 138.84 18.4801C138.84 17.6301 138.7 16.5601 138.14 16.5601C137.54 16.5601 137.41 17.6301 137.41 18.4801Z" fill="white"/>
<path d="M143.15 17.3601C143.15 16.6201 143.12 15.9901 143.1 15.4101H144.53L144.61 16.1301H144.64C144.9 15.6301 145.36 15.3101 145.93 15.3101C147.28 15.3101 147.83 16.7801 147.83 18.4801C147.83 20.6701 146.87 21.6601 145.83 21.6601C145.33 21.6601 144.99 21.3501 144.82 21.0601H144.79V23.9701H143.15V17.3501V17.3601ZM144.79 19.3201C144.79 19.5201 144.82 19.7201 144.87 19.8401C145 20.2201 145.22 20.3201 145.4 20.3201C145.98 20.3201 146.19 19.4701 146.19 18.5001C146.19 17.3301 145.91 16.7001 145.42 16.7001C145.16 16.7001 144.93 16.9401 144.86 17.2301C144.81 17.3501 144.79 17.5101 144.79 17.6701V19.3201Z" fill="white"/>
<path d="M148.64 17.2601C148.64 16.6501 148.61 15.9801 148.59 15.4101H150.02L150.1 16.3101H150.15C150.42 15.6501 150.92 15.3101 151.37 15.3101C151.54 15.3101 151.62 15.3201 151.72 15.3401V16.9701C151.62 16.9501 151.51 16.9501 151.36 16.9501C151.02 16.9501 150.54 17.1901 150.37 17.8201C150.33 17.9601 150.3 18.1801 150.3 18.4401V21.5601H148.65V17.2601H148.64Z" fill="white"/>
<path d="M156.65 18.4701C156.65 21.0301 155.23 21.6701 154.3 21.6701C152.83 21.6701 151.95 20.5101 151.95 18.5101C151.95 16.3001 153.11 15.3101 154.33 15.3101C155.78 15.3101 156.65 16.5301 156.65 18.4701ZM153.59 18.4801C153.59 19.5301 153.76 20.4201 154.35 20.4201C154.88 20.4201 155.02 19.3801 155.02 18.4801C155.02 17.6301 154.88 16.5601 154.32 16.5601C153.72 16.5601 153.59 17.6301 153.59 18.4801Z" fill="white"/>
<path d="M159.4 13.75V15.41H160.6V16.58H159.4V19.39C159.4 20.1 159.7 20.28 160.02 20.28C160.18 20.28 160.31 20.27 160.45 20.24V21.53C160.24 21.59 159.89 21.64 159.46 21.64C158.98 21.64 158.57 21.53 158.27 21.25C157.93 20.93 157.75 20.46 157.75 19.49V16.58H157.03V15.41H157.75V14.15L159.4 13.76V13.75Z" fill="white"/>
<path d="M162.55 19.0698C162.57 20.0298 163.12 20.3798 163.85 20.3798C164.32 20.3798 164.72 20.2798 165.02 20.1698L165.24 21.3498C164.82 21.5198 164.17 21.6298 163.55 21.6298C161.87 21.6298 160.95 20.5198 160.95 18.5998C160.95 16.5298 162.03 15.2998 163.41 15.2998C164.79 15.2998 165.51 16.3498 165.51 18.2098C165.51 18.6498 165.49 18.8898 165.46 19.0698H162.54H162.55ZM164.01 17.9198C164.01 17.1298 163.81 16.5098 163.32 16.5098C162.78 16.5098 162.57 17.2998 162.55 17.9198H164.01Z" fill="white"/>
<path d="M170.86 15.4101C170.83 15.9701 170.8 16.6201 170.8 17.3601V20.8701C170.8 22.2001 170.55 22.9201 170.06 23.4001C169.61 23.8301 168.96 24.0801 168.06 24.0801C167.49 24.0801 166.96 23.9801 166.52 23.7901L166.83 22.5201C167.14 22.6601 167.52 22.7801 168.01 22.7801C168.84 22.7801 169.17 22.2301 169.17 21.2901V20.9201H169.15C168.94 21.3101 168.51 21.5301 168.04 21.5301C166.66 21.5301 166.12 20.0201 166.12 18.5501C166.12 16.5001 167.05 15.3101 168.19 15.3101C168.67 15.3101 169.08 15.5701 169.32 16.0401H169.34L169.42 15.4101H170.86ZM169.16 17.6601C169.16 17.5001 169.13 17.3301 169.09 17.2101C169.01 16.9501 168.84 16.7001 168.56 16.7001C167.97 16.7001 167.73 17.5001 167.73 18.5101C167.73 19.6601 168.05 20.2401 168.53 20.2401C168.74 20.2401 168.95 20.1301 169.07 19.7901C169.13 19.6501 169.15 19.4701 169.15 19.3101V17.6601H169.16Z" fill="white"/>
<path d="M173.44 13.7799C173.45 14.3099 173.07 14.6699 172.58 14.6699C172.13 14.6699 171.75 14.3099 171.76 13.7799C171.75 13.2299 172.14 12.8799 172.6 12.8799C173.06 12.8799 173.44 13.2299 173.44 13.7799ZM171.79 21.5599V15.4099H173.44V21.5599H171.79Z" fill="white"/>
<path d="M178.94 12.8599V19.7399C178.94 20.3199 178.97 20.9899 178.99 21.5599H177.57L177.48 20.8599H177.45C177.22 21.2999 176.73 21.6599 176.17 21.6599C174.86 21.6599 174.26 20.2099 174.26 18.4999C174.26 16.3599 175.2 15.3099 176.24 15.3099C176.79 15.3099 177.12 15.5799 177.28 15.9299H177.3V12.8599H178.94ZM177.3 17.7699C177.3 17.6599 177.3 17.5299 177.28 17.4099C177.22 17.0299 177.03 16.6899 176.69 16.6899C176.11 16.6899 175.9 17.5299 175.9 18.5299C175.9 19.6999 176.22 20.3099 176.68 20.3099C176.89 20.3099 177.12 20.1999 177.25 19.7799C177.29 19.6799 177.3 19.5499 177.3 19.3999V17.7799V17.7699Z" fill="white"/>
<path d="M184.45 18.4701C184.45 21.0301 183.03 21.6701 182.1 21.6701C180.63 21.6701 179.75 20.5101 179.75 18.5101C179.75 16.3001 180.91 15.3101 182.13 15.3101C183.58 15.3101 184.45 16.5301 184.45 18.4701ZM181.39 18.4801C181.39 19.5301 181.56 20.4201 182.15 20.4201C182.68 20.4201 182.82 19.3801 182.82 18.4801C182.82 17.6301 182.68 16.5601 182.12 16.5601C181.52 16.5601 181.39 17.6301 181.39 18.4801Z" fill="white"/>
<path d="M187.13 17.3601C187.13 16.6201 187.1 15.9901 187.08 15.4101H188.51L188.59 16.1301H188.62C188.88 15.6301 189.34 15.3101 189.91 15.3101C191.26 15.3101 191.81 16.7801 191.81 18.4801C191.81 20.6701 190.85 21.6601 189.81 21.6601C189.31 21.6601 188.97 21.3501 188.8 21.0601H188.77V23.9701H187.13V17.3501V17.3601ZM188.77 19.3201C188.77 19.5201 188.8 19.7201 188.85 19.8401C188.98 20.2201 189.2 20.3201 189.38 20.3201C189.96 20.3201 190.17 19.4701 190.17 18.5001C190.17 17.3301 189.89 16.7001 189.4 16.7001C189.14 16.7001 188.91 16.9401 188.84 17.2301C188.79 17.3501 188.77 17.5101 188.77 17.6701V19.3201Z" fill="white"/>
<path d="M197.11 18.4701C197.11 21.0301 195.69 21.6701 194.76 21.6701C193.29 21.6701 192.41 20.5101 192.41 18.5101C192.41 16.3001 193.57 15.3101 194.79 15.3101C196.24 15.3101 197.11 16.5301 197.11 18.4701ZM194.05 18.4801C194.05 19.5301 194.22 20.4201 194.81 20.4201C195.34 20.4201 195.48 19.3801 195.48 18.4801C195.48 17.6301 195.34 16.5601 194.78 16.5601C194.18 16.5601 194.05 17.6301 194.05 18.4801Z" fill="white"/>
<path d="M197.92 17.2601C197.92 16.6501 197.89 15.9801 197.87 15.4101H199.3L199.38 16.3101H199.43C199.7 15.6501 200.2 15.3101 200.65 15.3101C200.82 15.3101 200.9 15.3201 201 15.3401V16.9701C200.9 16.9501 200.79 16.9501 200.64 16.9501C200.3 16.9501 199.82 17.1901 199.65 17.8201C199.61 17.9601 199.58 18.1801 199.58 18.4401V21.5601H197.93V17.2601H197.92Z" fill="white"/>
<path d="M105.63 32.3098C105.65 33.2698 106.2 33.6298 106.93 33.6298C107.4 33.6298 107.8 33.5298 108.1 33.4198L108.32 34.5998C107.9 34.7698 107.25 34.8798 106.63 34.8798C104.95 34.8798 104.03 33.7698 104.03 31.8498C104.03 29.7798 105.11 28.5498 106.49 28.5498C107.87 28.5498 108.59 29.5998 108.59 31.4598C108.59 31.8998 108.57 32.1398 108.54 32.3198H105.62L105.63 32.3098ZM107.1 31.1498C107.1 30.3598 106.9 29.7398 106.41 29.7398C105.87 29.7398 105.66 30.5298 105.64 31.1498H107.1Z" fill="white"/>
<path d="M109.39 26.1001H111.04V34.8001H109.39V26.1001Z" fill="white"/>
<path d="M113.93 33.11C114.27 33.31 114.86 33.44 115.32 33.44C116.1 33.44 116.48 33.04 116.48 32.48C116.48 31.87 116.1 31.56 115.38 31.11C114.22 30.4 113.78 29.51 113.78 28.74C113.78 27.38 114.68 26.25 116.46 26.25C117.02 26.25 117.55 26.41 117.79 26.55L117.53 27.97C117.29 27.82 116.93 27.68 116.45 27.68C115.74 27.68 115.4 28.11 115.4 28.56C115.4 29.07 115.66 29.34 116.57 29.88C117.69 30.56 118.1 31.41 118.1 32.3C118.1 33.86 116.96 34.87 115.3 34.87C114.62 34.87 113.96 34.7 113.68 34.53L113.92 33.11H113.93Z" fill="white"/>
<path d="M120.29 32.3098C120.31 33.2698 120.86 33.6298 121.59 33.6298C122.06 33.6298 122.46 33.5298 122.76 33.4198L122.98 34.5998C122.56 34.7698 121.91 34.8798 121.29 34.8798C119.61 34.8798 118.69 33.7698 118.69 31.8498C118.69 29.7798 119.77 28.5498 121.15 28.5498C122.53 28.5498 123.25 29.5998 123.25 31.4598C123.25 31.8998 123.23 32.1398 123.2 32.3198H120.28L120.29 32.3098ZM121.76 31.1498C121.76 30.3598 121.56 29.7398 121.07 29.7398C120.53 29.7398 120.32 30.5298 120.3 31.1498H121.76Z" fill="white"/>
<path d="M128.6 28.64C128.57 29.2 128.54 29.85 128.54 30.59V34.1C128.54 35.43 128.29 36.15 127.8 36.63C127.35 37.06 126.7 37.31 125.8 37.31C125.23 37.31 124.7 37.21 124.26 37.02L124.57 35.75C124.88 35.89 125.26 36.01 125.75 36.01C126.58 36.01 126.91 35.46 126.91 34.52V34.15H126.89C126.68 34.54 126.25 34.76 125.78 34.76C124.4 34.76 123.86 33.25 123.86 31.78C123.86 29.73 124.79 28.54 125.93 28.54C126.41 28.54 126.82 28.8 127.06 29.27H127.08L127.16 28.64H128.6ZM126.9 30.89C126.9 30.73 126.87 30.56 126.83 30.44C126.75 30.18 126.58 29.93 126.3 29.93C125.71 29.93 125.47 30.73 125.47 31.74C125.47 32.89 125.79 33.47 126.27 33.47C126.48 33.47 126.69 33.36 126.81 33.02C126.87 32.88 126.89 32.7 126.89 32.54V30.89H126.9Z" fill="white"/>
<path d="M134.05 32.9199C134.05 33.5799 134.08 34.2199 134.1 34.7999H132.68L132.59 34.1499H132.56C132.28 34.5599 131.78 34.8999 131.14 34.8999C129.97 34.8999 129.5 34.0399 129.5 32.3799V28.6499H131.15V32.1999C131.15 33.0099 131.31 33.5299 131.77 33.5299C132.05 33.5299 132.23 33.3199 132.31 33.1099C132.36 32.9899 132.41 32.7999 132.41 32.5899V28.6599H134.06V32.9399L134.05 32.9199Z" fill="white"/>
<path d="M135.1 30.4998C135.1 29.8898 135.07 29.2198 135.05 28.6498H136.48L136.56 29.5498H136.61C136.88 28.8898 137.38 28.5498 137.83 28.5498C138 28.5498 138.08 28.5598 138.18 28.5798V30.2098C138.08 30.1898 137.97 30.1898 137.82 30.1898C137.48 30.1898 137 30.4298 136.83 31.0598C136.79 31.1998 136.76 31.4198 136.76 31.6798V34.7998H135.11V30.4998H135.1Z" fill="white"/>
<path d="M143.11 31.7C143.11 34.26 141.69 34.9 140.76 34.9C139.29 34.9 138.41 33.74 138.41 31.74C138.41 29.53 139.57 28.54 140.79 28.54C142.24 28.54 143.11 29.76 143.11 31.7ZM140.05 31.71C140.05 32.76 140.22 33.65 140.81 33.65C141.34 33.65 141.48 32.61 141.48 31.71C141.48 30.86 141.34 29.79 140.78 29.79C140.18 29.79 140.05 30.86 140.05 31.71Z" fill="white"/>
<path d="M150.26 26.1001V32.9801C150.26 33.5601 150.29 34.2301 150.31 34.8001H148.89L148.8 34.1001H148.77C148.54 34.5401 148.05 34.9001 147.49 34.9001C146.18 34.9001 145.58 33.4501 145.58 31.7401C145.58 29.6001 146.52 28.5501 147.56 28.5501C148.11 28.5501 148.44 28.8201 148.6 29.1701H148.62V26.1001H150.26ZM148.62 31.0101C148.62 30.9001 148.62 30.7701 148.6 30.6501C148.54 30.2701 148.35 29.9301 148.01 29.9301C147.43 29.9301 147.22 30.7701 147.22 31.7701C147.22 32.9401 147.54 33.5501 148 33.5501C148.21 33.5501 148.44 33.4401 148.57 33.0201C148.61 32.9201 148.62 32.7901 148.62 32.6401V31.0201V31.0101Z" fill="white"/>
<path d="M152.67 32.3098C152.69 33.2698 153.24 33.6298 153.97 33.6298C154.44 33.6298 154.84 33.5298 155.14 33.4198L155.36 34.5998C154.94 34.7698 154.29 34.8798 153.67 34.8798C151.99 34.8798 151.07 33.7698 151.07 31.8498C151.07 29.7798 152.15 28.5498 153.53 28.5498C154.91 28.5498 155.63 29.5998 155.63 31.4598C155.63 31.8998 155.61 32.1398 155.58 32.3198H152.66L152.67 32.3098ZM154.13 31.1498C154.13 30.3598 153.93 29.7398 153.44 29.7398C152.9 29.7398 152.69 30.5298 152.67 31.1498H154.13Z" fill="white"/>
<path d="M158.46 26.45C158.87 26.35 159.48 26.29 160.13 26.29C161.2 26.29 161.94 26.54 162.48 27.04C163.21 27.69 163.58 28.82 163.58 30.46C163.58 32.1 163.14 33.39 162.4 34.05C161.82 34.6 160.99 34.87 159.81 34.87C159.29 34.87 158.77 34.82 158.45 34.77V26.45H158.46ZM160.1 33.49C160.19 33.52 160.31 33.52 160.4 33.52C161.2 33.52 161.88 32.74 161.88 30.41C161.88 28.67 161.43 27.61 160.43 27.61C160.31 27.61 160.2 27.61 160.1 27.65V33.5V33.49Z" fill="white"/>
<path d="M165.76 32.3098C165.78 33.2698 166.33 33.6298 167.06 33.6298C167.53 33.6298 167.93 33.5298 168.23 33.4198L168.45 34.5998C168.03 34.7698 167.38 34.8798 166.76 34.8798C165.08 34.8798 164.16 33.7698 164.16 31.8498C164.16 29.7798 165.24 28.5498 166.62 28.5498C168 28.5498 168.72 29.5998 168.72 31.4598C168.72 31.8998 168.7 32.1398 168.67 32.3198H165.75L165.76 32.3098ZM167.22 31.1498C167.22 30.3598 167.02 29.7398 166.53 29.7398C165.99 29.7398 165.78 30.5298 165.76 31.1498H167.22Z" fill="white"/>
<path d="M169.51 30.5998C169.51 29.8598 169.48 29.2298 169.46 28.6498H170.89L170.97 29.3698H171C171.26 28.8698 171.72 28.5498 172.29 28.5498C173.64 28.5498 174.19 30.0198 174.19 31.7198C174.19 33.9098 173.23 34.8998 172.19 34.8998C171.69 34.8998 171.35 34.5898 171.18 34.2998H171.15V37.2098H169.51V30.5898V30.5998ZM171.15 32.5498C171.15 32.7498 171.18 32.9498 171.23 33.0698C171.36 33.4498 171.58 33.5498 171.76 33.5498C172.34 33.5498 172.55 32.6998 172.55 31.7298C172.55 30.5598 172.27 29.9298 171.78 29.9298C171.52 29.9298 171.29 30.1698 171.22 30.4598C171.17 30.5798 171.15 30.7398 171.15 30.8998V32.5498Z" fill="white"/>
<path d="M179.5 31.6996C179.5 34.2596 178.08 34.8997 177.15 34.8997C175.68 34.8997 174.8 33.7396 174.8 31.7396C174.8 29.5296 175.96 28.5396 177.18 28.5396C178.63 28.5396 179.5 29.7596 179.5 31.6996ZM176.43 31.7096C176.43 32.7596 176.6 33.6497 177.19 33.6497C177.72 33.6497 177.86 32.6096 177.86 31.7096C177.86 30.8596 177.72 29.7896 177.16 29.7896C176.56 29.7896 176.43 30.8596 176.43 31.7096ZM178.92 26.1396L177.65 27.8996H176.61L177.47 26.1396H178.91H178.92Z" fill="white"/>
<path d="M180.25 33.32C180.49 33.47 180.95 33.64 181.36 33.64C181.77 33.64 182.03 33.45 182.03 33.09C182.03 32.77 181.85 32.57 181.31 32.26C180.31 31.69 180.06 31.05 180.06 30.49C180.06 29.38 180.85 28.54 182.09 28.54C182.6 28.54 183.01 28.67 183.34 28.83L183.05 30.03C182.81 29.89 182.52 29.78 182.19 29.78C181.77 29.78 181.57 30.03 181.57 30.3C181.57 30.57 181.71 30.73 182.29 31.07C183.2 31.58 183.53 32.23 183.53 32.92C183.53 34.18 182.63 34.86 181.35 34.86C180.84 34.86 180.23 34.72 179.95 34.51L180.24 33.31L180.25 33.32Z" fill="white"/>
<path d="M185.9 27.0196C185.91 27.5496 185.53 27.9096 185.04 27.9096C184.59 27.9096 184.21 27.5496 184.22 27.0196C184.21 26.4696 184.6 26.1196 185.06 26.1196C185.52 26.1196 185.9 26.4696 185.9 27.0196ZM184.25 34.7996V28.6496H185.9V34.7996H184.25Z" fill="white"/>
<path d="M188.88 26.9897V28.6497H190.08V29.8197H188.88V32.6297C188.88 33.3397 189.18 33.5197 189.5 33.5197C189.66 33.5197 189.79 33.5097 189.93 33.4797V34.7697C189.72 34.8297 189.37 34.8797 188.94 34.8797C188.46 34.8797 188.05 34.7697 187.75 34.4897C187.41 34.1697 187.23 33.6997 187.23 32.7297V29.8197H186.51V28.6497H187.23V27.3897L188.88 26.9997V26.9897Z" fill="white"/>
<path d="M195.13 31.7C195.13 34.26 193.71 34.9 192.78 34.9C191.31 34.9 190.43 33.74 190.43 31.74C190.43 29.53 191.59 28.54 192.81 28.54C194.26 28.54 195.13 29.76 195.13 31.7ZM192.06 31.71C192.06 32.76 192.23 33.65 192.82 33.65C193.35 33.65 193.49 32.61 193.49 31.71C193.49 30.86 193.35 29.79 192.79 29.79C192.19 29.79 192.06 30.86 192.06 31.71Z" fill="white"/>
<path d="M195.88 33.32C196.12 33.47 196.58 33.64 196.99 33.64C197.4 33.64 197.66 33.45 197.66 33.09C197.66 32.77 197.48 32.57 196.94 32.26C195.94 31.69 195.69 31.05 195.69 30.49C195.69 29.38 196.48 28.54 197.72 28.54C198.23 28.54 198.64 28.67 198.97 28.83L198.68 30.03C198.44 29.89 198.15 29.78 197.82 29.78C197.4 29.78 197.2 30.03 197.2 30.3C197.2 30.57 197.34 30.73 197.92 31.07C198.83 31.58 199.16 32.23 199.16 32.92C199.16 34.18 198.26 34.86 196.98 34.86C196.47 34.86 195.86 34.72 195.58 34.51L195.87 33.31L195.88 33.32Z" fill="white"/>
<path d="M118.96 46.0398L119.2 47.9798C119.26 48.4698 119.32 48.9198 119.36 49.3498H119.39C119.46 48.9198 119.55 48.4298 119.64 47.9998L120.04 46.0398H120.97L121.35 47.9598C121.45 48.4698 121.53 48.9098 121.59 49.3498H121.61C121.65 48.9298 121.7 48.4498 121.77 47.9598L122.05 46.0398H123.25L122.09 50.5398H121.06L120.72 48.9698C120.63 48.5598 120.55 48.0798 120.49 47.5598H120.47C120.41 48.0798 120.31 48.5498 120.21 48.9698L119.83 50.5298H118.79L117.68 46.0298H118.98L118.96 46.0398Z" fill="white"/>
<path d="M124.88 46.0398L125.12 47.9798C125.18 48.4698 125.24 48.9198 125.28 49.3498H125.31C125.38 48.9198 125.47 48.4298 125.56 47.9998L125.96 46.0398H126.89L127.27 47.9598C127.37 48.4698 127.45 48.9098 127.51 49.3498H127.53C127.57 48.9298 127.62 48.4498 127.69 47.9598L127.97 46.0398H129.17L128.01 50.5398H126.98L126.64 48.9698C126.55 48.5598 126.47 48.0798 126.41 47.5598H126.39C126.33 48.0798 126.23 48.5498 126.13 48.9698L125.75 50.5298H124.71L123.6 46.0298H124.9L124.88 46.0398Z" fill="white"/>
<path d="M130.8 46.0398L131.04 47.9798C131.1 48.4698 131.16 48.9198 131.2 49.3498H131.23C131.3 48.9198 131.39 48.4298 131.48 47.9998L131.88 46.0398H132.81L133.19 47.9598C133.29 48.4698 133.37 48.9098 133.43 49.3498H133.45C133.49 48.9298 133.54 48.4498 133.61 47.9598L133.89 46.0398H135.09L133.93 50.5398H132.9L132.56 48.9698C132.47 48.5598 132.39 48.0798 132.33 47.5598H132.31C132.25 48.0798 132.15 48.5498 132.05 48.9698L131.67 50.5298H130.63L129.52 46.0298H130.82L130.8 46.0398Z" fill="white"/>
<path d="M135.2 49.8198C135.2 49.3498 135.53 49.0098 135.91 49.0098C136.29 49.0098 136.61 49.3098 136.61 49.8198C136.61 50.3298 136.33 50.6198 135.9 50.6198C135.52 50.6198 135.2 50.3098 135.2 49.8198Z" fill="white"/>
<path d="M137.53 50.5398V46.8898H136.92V46.0298H137.53V45.8498C137.53 45.3398 137.64 44.8698 138 44.5098C138.26 44.2398 138.65 44.0898 139.08 44.0898C139.39 44.0898 139.63 44.1398 139.8 44.1898L139.67 45.1298C139.57 45.0898 139.45 45.0698 139.3 45.0698C138.9 45.0698 138.75 45.4298 138.75 45.8198V46.0298H139.53V46.8898H138.75V50.5398H137.54H137.53Z" fill="white"/>
<path d="M143.16 48.2797C143.16 50.1597 142.12 50.6197 141.44 50.6197C140.36 50.6197 139.72 49.7697 139.72 48.3097C139.72 46.6997 140.57 45.9697 141.46 45.9697C142.52 45.9697 143.16 46.8597 143.16 48.2797ZM140.92 48.2797C140.92 49.0497 141.04 49.6997 141.47 49.6997C141.86 49.6997 141.96 48.9397 141.96 48.2797C141.96 47.6597 141.86 46.8797 141.45 46.8797C141.01 46.8797 140.91 47.6597 140.91 48.2797H140.92Z" fill="white"/>
<path d="M147.17 46.04C147.15 46.45 147.13 46.93 147.13 47.47V50.04C147.13 51.01 146.95 51.54 146.59 51.89C146.26 52.21 145.78 52.39 145.13 52.39C144.71 52.39 144.33 52.32 144 52.18L144.22 51.25C144.45 51.35 144.73 51.44 145.08 51.44C145.69 51.44 145.93 51.04 145.93 50.35V50.08H145.91C145.76 50.36 145.44 50.53 145.1 50.53C144.09 50.53 143.7 49.43 143.7 48.35C143.7 46.85 144.38 45.98 145.22 45.98C145.57 45.98 145.87 46.17 146.05 46.51H146.07L146.13 46.05H147.18L147.17 46.04ZM145.93 47.68C145.93 47.56 145.91 47.44 145.88 47.35C145.82 47.16 145.7 46.98 145.49 46.98C145.06 46.98 144.89 47.57 144.89 48.3C144.89 49.14 145.13 49.56 145.47 49.56C145.63 49.56 145.78 49.48 145.87 49.23C145.91 49.13 145.93 49 145.93 48.88V47.67V47.68Z" fill="white"/>
<path d="M149.98 50.5397L149.91 50.0997H149.89C149.64 50.4497 149.29 50.6197 148.89 50.6197C148.21 50.6197 147.7 50.0497 147.7 49.2497C147.7 48.0697 148.74 47.5797 149.76 47.5697V47.4697C149.76 47.1097 149.55 46.8597 149.13 46.8597C148.77 46.8597 148.48 46.9597 148.21 47.1197L147.99 46.3097C148.24 46.1697 148.76 45.9697 149.39 45.9697C150.76 45.9697 150.98 46.9297 150.98 47.8397V49.5197C150.98 49.8797 150.99 50.2397 151.05 50.5497H149.97L149.98 50.5397ZM149.81 48.3497C149.41 48.3497 148.86 48.4897 148.86 49.1197C148.86 49.5697 149.11 49.7297 149.3 49.7297C149.5 49.7297 149.71 49.6097 149.79 49.3397C149.81 49.2797 149.82 49.2097 149.82 49.1397V48.3497H149.81Z" fill="white"/>
<path d="M152.06 50.5398V46.8898H151.45V46.0298H152.06V45.8498C152.06 45.3398 152.17 44.8698 152.53 44.5098C152.79 44.2398 153.18 44.0898 153.61 44.0898C153.92 44.0898 154.16 44.1398 154.33 44.1898L154.2 45.1298C154.1 45.0898 153.98 45.0698 153.83 45.0698C153.43 45.0698 153.28 45.4298 153.28 45.8198V46.0298H154.06V46.8898H153.28V50.5398H152.07H152.06Z" fill="white"/>
<path d="M155.68 44.8499C155.68 45.2399 155.41 45.4999 155.05 45.4999C154.72 45.4999 154.45 45.2299 154.45 44.8499C154.45 44.4399 154.73 44.1899 155.06 44.1899C155.39 44.1899 155.68 44.4399 155.68 44.8499ZM154.48 50.5399V46.0399H155.69V50.5399H154.48Z" fill="white"/>
<path d="M156.53 47.39C156.53 46.9 156.51 46.46 156.49 46.03H157.53L157.59 46.55H157.61C157.84 46.19 158.23 45.96 158.7 45.96C159.55 45.96 159.9 46.64 159.9 47.65V50.54H158.69V47.72C158.69 47.34 158.6 46.98 158.25 46.98C158.05 46.98 157.88 47.12 157.8 47.39C157.77 47.48 157.74 47.63 157.74 47.81V50.55H156.53V47.4V47.39Z" fill="white"/>
<path d="M160.77 49.8198C160.77 49.3498 161.1 49.0098 161.48 49.0098C161.86 49.0098 162.18 49.3098 162.18 49.8198C162.18 50.3298 161.9 50.6198 161.47 50.6198C161.09 50.6198 160.77 50.3098 160.77 49.8198Z" fill="white"/>
<path d="M166.22 46.04C166.2 46.45 166.18 46.93 166.18 47.47V50.04C166.18 51.01 166 51.54 165.64 51.89C165.31 52.21 164.83 52.39 164.18 52.39C163.76 52.39 163.38 52.32 163.05 52.18L163.27 51.25C163.5 51.35 163.78 51.44 164.13 51.44C164.74 51.44 164.98 51.04 164.98 50.35V50.08H164.96C164.81 50.36 164.49 50.53 164.15 50.53C163.14 50.53 162.75 49.43 162.75 48.35C162.75 46.85 163.43 45.98 164.27 45.98C164.62 45.98 164.92 46.17 165.1 46.51H165.12L165.18 46.05H166.23L166.22 46.04ZM164.97 47.68C164.97 47.56 164.95 47.44 164.92 47.35C164.86 47.16 164.74 46.98 164.53 46.98C164.1 46.98 163.93 47.57 163.93 48.3C163.93 49.14 164.17 49.56 164.51 49.56C164.67 49.56 164.82 49.48 164.91 49.23C164.95 49.13 164.97 49 164.97 48.88V47.67V47.68Z" fill="white"/>
<path d="M170.29 48.2797C170.29 50.1597 169.25 50.6197 168.57 50.6197C167.49 50.6197 166.85 49.7697 166.85 48.3097C166.85 46.6997 167.7 45.9697 168.59 45.9697C169.65 45.9697 170.29 46.8597 170.29 48.2797ZM168.04 48.2797C168.04 49.0497 168.16 49.6997 168.59 49.6997C168.98 49.6997 169.08 48.9397 169.08 48.2797C169.08 47.6597 168.98 46.8797 168.57 46.8797C168.13 46.8797 168.03 47.6597 168.03 48.2797H168.04Z" fill="white"/>
<path d="M171.79 46.04L172.13 48.05C172.19 48.45 172.26 48.85 172.32 49.31H172.34C172.39 48.85 172.45 48.47 172.52 48.05L172.87 46.04H174.06L172.85 50.54H171.74L170.51 46.04H171.79Z" fill="white"/>
<path d="M174.17 49.8198C174.17 49.3498 174.5 49.0098 174.88 49.0098C175.26 49.0098 175.58 49.3098 175.58 49.8198C175.58 50.3298 175.3 50.6198 174.87 50.6198C174.49 50.6198 174.17 50.3098 174.17 49.8198Z" fill="white"/>
<path d="M178.79 50.47C178.67 50.53 178.37 50.6 178.02 50.6C176.88 50.6 176.13 49.81 176.13 48.34C176.13 46.95 176.95 45.98 178.2 45.98C178.48 45.98 178.74 46.04 178.86 46.1L178.7 47.04C178.6 47.01 178.45 46.96 178.25 46.96C177.67 46.96 177.33 47.51 177.33 48.3C177.33 49.09 177.68 49.62 178.24 49.62C178.41 49.62 178.56 49.59 178.69 49.53L178.79 50.47Z" fill="white"/>
<path d="M182.53 48.2797C182.53 50.1597 181.49 50.6197 180.81 50.6197C179.73 50.6197 179.09 49.7697 179.09 48.3097C179.09 46.6997 179.94 45.9697 180.83 45.9697C181.89 45.9697 182.53 46.8597 182.53 48.2797ZM180.29 48.2797C180.29 49.0497 180.41 49.6997 180.84 49.6997C181.23 49.6997 181.33 48.9397 181.33 48.2797C181.33 47.6597 181.23 46.8797 180.82 46.8797C180.38 46.8797 180.28 47.6597 180.28 48.2797H180.29Z" fill="white"/>
<path d="M95.1599 56.0501V4.56006" stroke="white" stroke-width="0.25" stroke-miterlimit="10"/>
<path d="M10.0599 18.7999C10.0599 20.0099 9.07993 20.9899 7.86993 20.9899C6.65993 20.9899 5.67993 20.0099 5.67993 18.7999C5.67993 17.5899 6.65993 16.6099 7.86993 16.6099C9.07993 16.6099 10.0599 17.5899 10.0599 18.7999Z" fill="white"/>
<path d="M15.4501 18.7999C15.4501 20.0099 14.4701 20.9899 13.2601 20.9899C12.0501 20.9899 11.0801 20.0099 11.0801 18.7999C11.0801 17.5899 12.0601 16.6099 13.2601 16.6099C14.4601 16.6099 15.4501 17.5899 15.4501 18.7999Z" fill="white"/>
<path d="M20.84 18.7999C20.84 20.0099 19.86 20.9899 18.65 20.9899C17.44 20.9899 16.47 20.0099 16.47 18.7999C16.47 17.5899 17.45 16.6099 18.65 16.6099C19.85 16.6099 20.84 17.5899 20.84 18.7999Z" fill="white"/>
<path d="M10.0599 24.0899C10.0599 25.2999 9.07993 26.2799 7.86993 26.2799C6.65993 26.2799 5.67993 25.2999 5.67993 24.0899C5.67993 22.8799 6.65993 21.8999 7.86993 21.8999C9.07993 21.8999 10.0599 22.8799 10.0599 24.0899Z" fill="white"/>
<path d="M15.4501 24.0899C15.4501 25.2999 14.4701 26.2799 13.2601 26.2799C12.0501 26.2799 11.0801 25.2999 11.0801 24.0899C11.0801 22.8799 12.0601 21.8999 13.2601 21.8999C14.4601 21.8999 15.4501 22.8799 15.4501 24.0899Z" fill="white"/>
<path d="M20.84 24.0899C20.84 25.2999 19.86 26.2799 18.65 26.2799C17.44 26.2799 16.47 25.2999 16.47 24.0899C16.47 22.8799 17.45 21.8999 18.65 21.8999C19.85 21.8999 20.84 22.8799 20.84 24.0899Z" fill="#808082" stroke="white" stroke-width="0.25" stroke-miterlimit="10"/>
<path d="M10.0599 29.3902C10.0599 30.6002 9.07993 31.5702 7.86993 31.5702C6.65993 31.5702 5.67993 30.5902 5.67993 29.3902C5.67993 28.1902 6.65993 27.2002 7.86993 27.2002C9.07993 27.2002 10.0599 28.1802 10.0599 29.3902Z" fill="white"/>
<path d="M15.4501 29.3902C15.4501 30.6002 14.4701 31.5702 13.2601 31.5702C12.0501 31.5702 11.0801 30.5902 11.0801 29.3902C11.0801 28.1902 12.0601 27.2002 13.2601 27.2002C14.4601 27.2002 15.4501 28.1802 15.4501 29.3902Z" fill="#808082" stroke="white" stroke-width="0.25" stroke-miterlimit="10"/>
<path d="M20.84 29.3902C20.84 30.6002 19.86 31.5702 18.65 31.5702C17.44 31.5702 16.47 30.5902 16.47 29.3902C16.47 28.1902 17.45 27.2002 18.65 27.2002C19.85 27.2002 20.84 28.1802 20.84 29.3902Z" fill="#808082" stroke="white" stroke-width="0.25" stroke-miterlimit="10"/>
<path d="M25.2 16.8198H34.06V19.5198H28.4699V22.8398H33.6899V25.5098H28.4699V31.3498H25.2V16.8198Z" fill="white"/>
<path d="M45.2099 25.9598C45.2099 29.8198 42.4699 31.5898 39.6399 31.5898C36.5499 31.5898 34.1899 29.5598 34.1899 26.1598C34.1899 22.7598 36.4299 20.5498 39.8399 20.5498C43.0599 20.5498 45.2099 22.7698 45.2099 25.9598ZM37.5799 26.0698C37.5799 27.8798 38.3299 29.2398 39.7399 29.2398C41.0299 29.2398 41.8299 27.9698 41.8299 26.0498C41.8299 24.4998 41.2299 22.8998 39.7399 22.8998C38.2499 22.8998 37.5799 24.5198 37.5799 26.0698Z" fill="white"/>
<path d="M56.4299 29.8196C56.4299 31.8496 56.0199 33.5096 54.8099 34.5696C53.6699 35.5596 52.0899 35.8596 50.5399 35.8596C49.1399 35.8596 47.6899 35.5796 46.7499 35.0596L47.3899 32.5596C48.0599 32.9496 49.2099 33.3596 50.4499 33.3596C51.9999 33.3596 53.1899 32.5396 53.1899 30.5796V29.9096H53.1499C52.5299 30.7696 51.5099 31.2696 50.3099 31.2696C47.6999 31.2696 45.8499 29.1596 45.8499 26.1396C45.8499 22.7296 48.0299 20.5796 50.6399 20.5796C52.0899 20.5796 52.9899 21.1996 53.5299 22.0896H53.5699L53.6799 20.8196H56.5199C56.4799 21.5096 56.4399 22.3896 56.4399 23.9696V29.8396L56.4299 29.8196ZM53.1499 25.0996C53.1499 24.9096 53.1299 24.6896 53.0899 24.4996C52.8499 23.6396 52.2299 23.0596 51.3199 23.0596C50.1199 23.0596 49.1699 24.1396 49.1699 26.0596C49.1699 27.6296 49.9399 28.8596 51.2999 28.8596C52.1599 28.8596 52.8299 28.2996 53.0499 27.5496C53.1399 27.2896 53.1599 26.9496 53.1599 26.6596V25.1096L53.1499 25.0996Z" fill="white"/>
<path d="M66.7601 28.8098C66.7601 29.7998 66.8101 30.7698 66.9401 31.3498H63.98L63.7901 30.2998H63.7201C63.0301 31.1398 61.9601 31.5898 60.7001 31.5898C58.5701 31.5898 57.3 30.0398 57.3 28.3498C57.3 25.6098 59.7601 24.3198 63.4901 24.3198V24.1898C63.4901 23.6098 63.19 22.8098 61.57 22.8098C60.49 22.8098 59.35 23.1798 58.66 23.6098L58.0601 21.4998C58.7901 21.0898 60.24 20.5498 62.16 20.5498C65.68 20.5498 66.77 22.6198 66.77 25.1198V28.8098H66.7601ZM63.59 26.3698C61.86 26.3698 60.53 26.7798 60.53 28.0298C60.53 28.8698 61.09 29.2798 61.82 29.2798C62.62 29.2798 63.3101 28.7398 63.5201 28.0698C63.5601 27.8998 63.59 27.6998 63.59 27.5098V26.3698Z" fill="white"/>
<path d="M68.66 31.3498V23.2198H67.26V20.8098H68.66V20.3998C68.66 19.1298 69.05 17.7298 69.98 16.8598C70.82 16.0798 71.94 15.7998 72.91 15.7998C73.62 15.7998 74.18 15.9098 74.64 16.0198L74.51 18.5398C74.23 18.4498 73.89 18.3898 73.45 18.3898C72.37 18.3898 71.92 19.2298 71.92 20.2598V20.7998H74.03V23.2098H71.94V31.3398H68.66V31.3498Z" fill="white"/>
<path d="M75 31.3497V20.8097H78.27V31.3497H75ZM80.13 16.2197L77.5 19.4997H75.25L77.11 16.2197H80.13Z" fill="white"/>
<path d="M79.57 24.1696C79.57 22.8496 79.53 21.7496 79.48 20.8096H82.33L82.48 22.2796H82.55C82.98 21.5896 84.04 20.5796 85.81 20.5796C87.96 20.5796 89.58 22.0196 89.58 25.1296V31.3596H86.31V25.5196C86.31 24.1596 85.84 23.2396 84.65 23.2396C83.75 23.2396 83.2 23.8596 82.97 24.4696C82.89 24.6896 82.87 24.9896 82.87 25.2896V31.3696H79.59V24.1896L79.57 24.1696Z" fill="white"/>
<path d="M5.68992 42.9699L5.91992 42.2199C6.02992 42.3099 6.19992 42.3899 6.41992 42.4499C6.63992 42.5099 6.84992 42.5499 7.04992 42.5499C7.35992 42.5499 7.60992 42.4699 7.79992 42.3199C7.98992 42.1699 8.07992 41.9599 8.07992 41.6999C8.07992 41.4799 8.00992 41.2799 7.86992 41.1199C7.72992 40.9499 7.48992 40.7399 7.13992 40.4999C6.79992 40.2499 6.55992 40.0199 6.39992 39.8099C6.24992 39.5999 6.16992 39.3299 6.16992 39.0099C6.16992 38.4999 6.32992 38.0899 6.65992 37.7999C6.98992 37.5099 7.39992 37.3599 7.91992 37.3599C8.49992 37.3599 8.88992 37.4099 9.07992 37.5099L8.85992 38.2599C8.77992 38.1999 8.66992 38.1399 8.48992 38.0899C8.31992 38.0399 8.15992 38.0099 8.00992 38.0099C7.67992 38.0099 7.40992 38.0899 7.21992 38.2299C7.02992 38.3799 6.92992 38.5999 6.92992 38.8799C6.92992 38.9999 6.96992 39.1099 7.01992 39.2299C7.07992 39.3399 7.16992 39.4399 7.26992 39.5299C7.36992 39.6199 7.58992 39.7899 7.90992 40.0299C8.22992 40.2699 8.46992 40.5199 8.61992 40.7699C8.76992 41.0199 8.84992 41.3099 8.84992 41.6399C8.84992 42.1599 8.66992 42.5499 8.32992 42.8299C7.97992 43.1099 7.51992 43.2399 6.95992 43.2399C6.75992 43.2399 6.52992 43.2099 6.26992 43.1499C6.01992 43.0899 5.81992 43.0299 5.66992 42.9599L5.68992 42.9699Z" fill="white"/>
<path d="M10.1899 41.1897C10.1699 41.3097 10.1499 41.4297 10.1499 41.5497C10.1499 41.8897 10.2399 42.1597 10.4399 42.3397C10.6299 42.5197 10.8999 42.6197 11.2399 42.6197C11.5499 42.6197 11.8499 42.5097 12.1599 42.2797L12.0799 43.0297C11.6599 43.1597 11.2999 43.2297 10.9799 43.2297C9.89987 43.2297 9.36987 42.6297 9.36987 41.4297C9.36987 40.7197 9.59987 40.1297 10.0499 39.6397C10.4999 39.1597 11.0699 38.9097 11.7499 38.9097C12.1599 38.9097 12.4899 38.9997 12.7399 39.1697C12.9899 39.3497 13.1099 39.5997 13.1099 39.9197C13.1099 40.3697 12.9199 40.7297 12.5399 40.9897C12.1599 41.2497 11.6899 41.3797 11.1299 41.3797C10.7599 41.3797 10.4399 41.3097 10.1799 41.1697L10.1899 41.1897ZM10.3199 40.6497C10.5199 40.7397 10.7399 40.7797 11.0099 40.7797C11.4099 40.7797 11.7499 40.7197 11.9999 40.5897C12.2599 40.4597 12.3799 40.2697 12.3799 40.0197C12.3799 39.6997 12.1599 39.5397 11.7199 39.5397C11.0499 39.5397 10.5699 39.9097 10.3099 40.6497H10.3199Z" fill="white"/>
<path d="M13.01 44.3198L13.36 43.7698C13.84 44.0098 14.23 44.1298 14.54 44.1298C14.88 44.1298 15.17 44.0698 15.4 43.9398C15.62 43.8098 15.74 43.6298 15.74 43.4098C15.74 43.2998 15.7 43.1998 15.62 43.1298C15.55 43.0498 15.41 42.9998 15.23 42.9698L14.54 42.8498C14.26 42.7798 14.12 42.6398 14.12 42.4298C14.12 42.2598 14.34 42.0898 14.78 41.9098H14.65C14.34 41.9098 14.08 41.7998 13.85 41.5698C13.62 41.3398 13.51 41.0698 13.51 40.7498C13.51 40.2098 13.69 39.7598 14.03 39.4198C14.38 39.0798 14.83 38.8998 15.37 38.8998C15.76 38.8998 16.07 38.9898 16.29 39.1798L16.64 38.7798L17.05 39.1998L16.67 39.5998C16.74 39.7098 16.78 39.8698 16.78 40.0998C16.78 40.5498 16.67 40.9298 16.44 41.2498C16.21 41.5698 15.92 41.7898 15.55 41.9198C15.19 42.0498 15.01 42.1698 15.01 42.2798C15.01 42.3698 15.06 42.4198 15.15 42.4198C15.19 42.4198 15.24 42.4198 15.31 42.3998C15.38 42.3898 15.43 42.3798 15.47 42.3798C16.12 42.3798 16.44 42.6698 16.44 43.2498C16.44 43.7098 16.24 44.0798 15.83 44.3498C15.42 44.6298 14.94 44.7598 14.38 44.7598C13.82 44.7598 13.35 44.6098 12.99 44.2898L13.01 44.3198ZM15.33 39.5098C15.03 39.5098 14.78 39.6298 14.58 39.8598C14.37 40.0898 14.27 40.3698 14.27 40.6798C14.27 41.2398 14.48 41.5298 14.91 41.5298C15.2 41.5298 15.46 41.3898 15.68 41.0998C15.9 40.8198 16.02 40.5198 16.02 40.1998C16.02 39.9898 15.96 39.8198 15.83 39.6998C15.7 39.5698 15.54 39.5098 15.33 39.5098Z" fill="white"/>
<path d="M18.53 38.99L18.04 41.65C18.02 41.76 18.01 41.87 18.01 41.96C18.01 42.4 18.23 42.61 18.69 42.61C18.97 42.61 19.23 42.51 19.49 42.3C19.74 42.1 19.9 41.85 19.95 41.56L20.43 38.99H21.21L20.45 43.15H19.67L19.78 42.56C19.49 43 18.99 43.22 18.27 43.22C17.94 43.22 17.69 43.12 17.51 42.93C17.33 42.74 17.24 42.47 17.24 42.11C17.24 41.98 17.25 41.85 17.28 41.71L17.76 38.98H18.54L18.53 38.99Z" fill="white"/>
<path d="M24.3299 39.7197C24.1699 39.5897 23.9899 39.5297 23.7799 39.5297C23.5199 39.5297 23.2699 39.6497 23.0299 39.8897C22.7899 40.1297 22.6399 40.4197 22.5799 40.7597L22.1599 43.1497H21.4199L22.1499 38.9897H22.8899L22.7699 39.6497C23.1199 39.1597 23.5699 38.9097 24.0999 38.9097C24.1899 38.9097 24.3299 38.9297 24.5299 38.9697L24.3199 39.7197H24.3299Z" fill="white"/>
<path d="M24.74 43.1599L25.36 39.6199H24.81L24.95 39.0099H26.22L25.48 43.1599H24.73H24.74ZM25.93 37.3599C26.07 37.3599 26.19 37.4099 26.29 37.5099C26.39 37.6099 26.44 37.7299 26.44 37.8799C26.44 38.0299 26.39 38.1399 26.29 38.2499C26.19 38.3499 26.07 38.3999 25.93 38.3999C25.79 38.3999 25.67 38.3499 25.56 38.2499C25.46 38.1499 25.41 38.0299 25.41 37.8799C25.41 37.7299 25.46 37.6099 25.56 37.5099C25.66 37.4099 25.78 37.3599 25.93 37.3599Z" fill="white"/>
<path d="M29.34 43.1598L29.43 42.6798C29.13 43.0498 28.71 43.2298 28.19 43.2298C27.74 43.2298 27.39 43.0898 27.14 42.8098C26.89 42.5298 26.76 42.1598 26.76 41.6898C26.76 40.8798 26.98 40.2198 27.41 39.6998C27.84 39.1798 28.4 38.9198 29.08 38.9198C29.47 38.9198 29.78 39.0898 29.99 39.4098L30.38 37.2798H31.09L30.08 43.1498H29.35L29.34 43.1598ZM29.86 40.1498C29.86 40.1498 29.83 40.0498 29.76 39.9398C29.69 39.8198 29.59 39.7198 29.49 39.6598C29.39 39.5898 29.28 39.5498 29.16 39.5498C28.7 39.5498 28.32 39.7398 28.01 40.1098C27.71 40.4798 27.56 40.9598 27.56 41.5398C27.56 42.2698 27.86 42.6398 28.46 42.6398C28.74 42.6398 28.99 42.5098 29.22 42.2398C29.45 41.9698 29.61 41.6298 29.68 41.1998L29.85 40.1598L29.86 40.1498Z" fill="white"/>
<path d="M34.7699 39.2499L34.2599 41.6699C34.2399 41.7699 34.2299 41.8899 34.2299 42.0299C34.2299 42.4299 34.2899 42.8099 34.4199 43.1499H33.6699C33.6299 43.0699 33.5899 42.9299 33.5399 42.7299C33.4199 42.8799 33.2399 42.9999 32.9999 43.0899C32.7599 43.1799 32.4999 43.2299 32.2299 43.2299C31.8199 43.2299 31.4999 43.1099 31.2699 42.8699C31.0399 42.6299 30.9299 42.2799 30.9299 41.8199C30.9299 41.0599 31.1599 40.3799 31.6099 39.7899C32.0599 39.1999 32.6399 38.8999 33.3499 38.8999C34.0199 38.8999 34.4999 39.0099 34.7799 39.2399L34.7699 39.2499ZM33.9499 39.6799C33.8799 39.5699 33.6399 39.5099 33.2399 39.5099C32.8399 39.5099 32.4699 39.7299 32.1599 40.1599C31.8499 40.5999 31.6999 41.1399 31.6999 41.7899C31.6999 42.3399 31.9499 42.6199 32.4399 42.6199C32.6899 42.6199 32.9299 42.4899 33.1599 42.2199C33.3799 41.9499 33.5399 41.6099 33.6299 41.1999L33.9499 39.6699V39.6799Z" fill="white"/>
<path d="M37.57 43.1598L37.66 42.6798C37.36 43.0498 36.94 43.2298 36.43 43.2298C35.98 43.2298 35.63 43.0898 35.38 42.8098C35.12 42.5298 35 42.1598 35 41.6898C35 40.8798 35.22 40.2198 35.65 39.6998C36.08 39.1798 36.64 38.9198 37.32 38.9198C37.72 38.9198 38.02 39.0898 38.23 39.4098L38.62 37.2798H39.32L38.31 43.1498H37.58L37.57 43.1598ZM38.07 40.1498C38.07 40.1498 38.04 40.0498 37.97 39.9398C37.9 39.8198 37.81 39.7198 37.7 39.6598C37.59 39.5898 37.48 39.5498 37.37 39.5498C36.91 39.5498 36.53 39.7398 36.23 40.1098C35.93 40.4798 35.77 40.9598 35.77 41.5398C35.77 42.2698 36.08 42.6398 36.68 42.6398C36.95 42.6398 37.2 42.5098 37.44 42.2398C37.68 41.9698 37.83 41.6298 37.9 41.1998L38.07 40.1598V40.1498Z" fill="white"/>
<path d="M41.9098 42.9497L41.5798 44.8097H40.8398L41.6598 40.2397C41.6998 40.0397 41.7198 39.8397 41.7198 39.6497C41.7198 39.4497 41.6998 39.2597 41.6598 39.0697L42.4098 38.9297C42.4098 38.9297 42.4398 39.1397 42.4798 39.4597C42.5998 39.3097 42.7698 39.1797 43.0098 39.0797C43.2398 38.9697 43.4498 38.9297 43.6498 38.9297C44.1698 38.9297 44.5598 39.0597 44.8098 39.3097C45.0698 39.5697 45.1998 39.9497 45.1998 40.4697C45.1998 41.2597 44.9798 41.9197 44.5498 42.4497C44.1098 42.9797 43.5398 43.2497 42.8298 43.2497C42.6798 43.2497 42.4998 43.2197 42.2998 43.1597C42.0998 43.0997 41.9798 43.0297 41.9298 42.9397L41.9098 42.9497ZM42.0198 42.3397C42.0698 42.4197 42.1598 42.4897 42.3098 42.5497C42.4498 42.5997 42.5898 42.6297 42.7098 42.6297C43.2498 42.6297 43.6698 42.4497 43.9598 42.0797C44.2498 41.7097 44.3998 41.2097 44.3998 40.5797C44.3998 40.2397 44.3198 39.9797 44.1398 39.8097C43.9598 39.6397 43.7098 39.5597 43.3598 39.5597C43.2098 39.5597 43.0398 39.6097 42.8398 39.7197C42.6398 39.8297 42.4998 39.9297 42.4098 40.0497L42.0098 42.3397H42.0198Z" fill="white"/>
<path d="M49.2199 39.2499L48.7099 41.6699C48.6899 41.7699 48.6799 41.8899 48.6799 42.0299C48.6799 42.4299 48.7499 42.8099 48.8699 43.1499H48.1199C48.0799 43.0699 48.0399 42.9299 47.9899 42.7299C47.8699 42.8799 47.6899 42.9999 47.4399 43.0899C47.1999 43.1799 46.9499 43.2299 46.6699 43.2299C46.2699 43.2299 45.9399 43.1099 45.7099 42.8699C45.4799 42.6299 45.3699 42.2799 45.3699 41.8199C45.3699 41.0599 45.5899 40.3799 46.0399 39.7899C46.4899 39.1999 47.0699 38.8999 47.7699 38.8999C48.4399 38.8999 48.9199 39.0099 49.2099 39.2399L49.2199 39.2499ZM48.4099 39.6799C48.3399 39.5699 48.0999 39.5099 47.6999 39.5099C47.2999 39.5099 46.9399 39.7299 46.6199 40.1599C46.3099 40.5999 46.1499 41.1399 46.1499 41.7899C46.1499 42.3399 46.3899 42.6199 46.8799 42.6199C47.1399 42.6199 47.3799 42.4899 47.6099 42.2199C47.8299 41.9499 47.9899 41.6099 48.0799 41.1999L48.3999 39.6699L48.4099 39.6799Z" fill="white"/>
<path d="M52.37 39.7197C52.21 39.5897 52.03 39.5297 51.82 39.5297C51.56 39.5297 51.31 39.6497 51.07 39.8897C50.83 40.1297 50.68 40.4197 50.62 40.7597L50.2 43.1497H49.46L50.19 38.9897H50.93L50.81 39.6497C51.17 39.1597 51.61 38.9097 52.14 38.9097C52.23 38.9097 52.37 38.9297 52.56 38.9697L52.35 39.7197H52.37Z" fill="white"/>
<path d="M56.33 39.2499L55.82 41.6699C55.8 41.7699 55.79 41.8899 55.79 42.0299C55.79 42.4299 55.85 42.8099 55.98 43.1499H55.23C55.19 43.0699 55.15 42.9299 55.1 42.7299C54.97 42.8799 54.79 42.9999 54.56 43.0899C54.32 43.1799 54.06 43.2299 53.79 43.2299C53.38 43.2299 53.06 43.1099 52.83 42.8699C52.6 42.6299 52.49 42.2799 52.49 41.8199C52.49 41.0599 52.71 40.3799 53.17 39.7899C53.62 39.1999 54.2 38.8999 54.9 38.8999C55.57 38.8999 56.05 39.0099 56.34 39.2399L56.33 39.2499ZM55.51 39.6799C55.44 39.5699 55.2 39.5099 54.8 39.5099C54.4 39.5099 54.03 39.7299 53.72 40.1599C53.41 40.5999 53.26 41.1399 53.26 41.7899C53.26 42.3399 53.51 42.6199 54 42.6199C54.25 42.6199 54.49 42.4899 54.72 42.2199C54.94 41.9499 55.1 41.6099 55.19 41.1999L55.51 39.6699V39.6799Z" fill="white"/>
<path d="M59.4699 39.5796H58.9899L59.1099 38.9996H59.5899L59.7599 38.1296L60.6099 37.8096L60.3299 38.9996H61.4699L61.3399 39.5796H60.1999L59.7699 41.6496C59.7299 41.8096 59.7199 41.9296 59.7199 42.0196C59.7199 42.4196 59.9099 42.6196 60.3099 42.6196C60.4999 42.6196 60.7099 42.5696 60.9199 42.4796L60.8999 43.1296C60.6899 43.2096 60.3399 43.2496 59.8699 43.2496C59.5799 43.2496 59.3399 43.1596 59.1799 42.9796C59.0099 42.7996 58.9299 42.5396 58.9299 42.2296C58.9299 42.1596 58.9399 42.0696 58.9599 41.9596L59.4599 39.5996L59.4699 39.5796Z" fill="white"/>
<path d="M63.04 38.99L62.56 41.65C62.54 41.76 62.53 41.87 62.53 41.96C62.53 42.4 62.75 42.61 63.2 42.61C63.48 42.61 63.75 42.51 64 42.3C64.26 42.1 64.41 41.85 64.46 41.56L64.93 38.99H65.71L64.95 43.15H64.17L64.28 42.56C63.99 43 63.49 43.22 62.77 43.22C62.45 43.22 62.19 43.12 62.02 42.93C61.84 42.74 61.74 42.47 61.74 42.11C61.74 41.98 61.76 41.85 61.78 41.71L62.26 38.98H63.04V38.99Z" fill="white"/>
<path d="M70.4999 43.1598L70.5899 42.6798C70.2899 43.0498 69.8799 43.2298 69.3599 43.2298C68.9099 43.2298 68.5599 43.0898 68.2999 42.8098C68.0499 42.5298 67.9199 42.1598 67.9199 41.6898C67.9199 40.8798 68.1399 40.2198 68.5699 39.6998C69.0099 39.1798 69.5699 38.9198 70.2499 38.9198C70.6399 38.9198 70.9399 39.0898 71.1599 39.4098L71.5499 37.2798H72.2499L71.2399 43.1498H70.5099L70.4999 43.1598ZM71.0099 40.1498C71.0099 40.1498 70.9799 40.0498 70.9099 39.9398C70.8299 39.8198 70.7499 39.7198 70.6399 39.6598C70.5299 39.5898 70.4199 39.5498 70.3099 39.5498C69.8499 39.5498 69.4699 39.7398 69.1699 40.1098C68.8699 40.4798 68.7199 40.9598 68.7199 41.5398C68.7199 42.2698 69.0199 42.6398 69.6199 42.6398C69.8899 42.6398 70.1499 42.5098 70.3799 42.2398C70.6199 41.9698 70.7699 41.6298 70.8399 41.1998L71.0099 40.1598V40.1498Z" fill="white"/>
<path d="M72.3699 43.1599L72.9999 39.6199H72.4499L72.5899 39.0099H73.8599L73.1199 43.1599H72.3699ZM73.5599 37.3599C73.7099 37.3599 73.8299 37.4099 73.9299 37.5099C74.0299 37.6099 74.0799 37.7299 74.0799 37.8799C74.0799 38.0299 74.0299 38.1399 73.9299 38.2499C73.8299 38.3499 73.7099 38.3999 73.5599 38.3999C73.4099 38.3999 73.2999 38.3499 73.1999 38.2499C73.0999 38.1499 73.0499 38.0299 73.0499 37.8799C73.0499 37.7299 73.0999 37.6099 73.1999 37.5099C73.2999 37.4099 73.4199 37.3599 73.5599 37.3599Z" fill="white"/>
<path d="M76.8999 43.1599L77.3399 40.7399C77.3799 40.5199 77.3999 40.3399 77.3999 40.1999C77.3999 39.7599 77.1699 39.5399 76.7099 39.5399C76.5299 39.5399 76.3399 39.5899 76.1399 39.6899C75.9399 39.7999 75.7799 39.9199 75.6599 40.0599L75.1199 43.1499H74.3699L74.9299 39.9899C74.9399 39.9199 74.9499 39.8299 74.9499 39.7299C74.9499 39.4699 74.9199 39.2399 74.8699 39.0399L75.5899 38.8999C75.6599 39.2799 75.6899 39.4899 75.6899 39.5199C76.0099 39.1099 76.4599 38.8999 77.0599 38.8999C77.8099 38.8999 78.1899 39.2799 78.1899 40.0499C78.1899 40.1999 78.1699 40.3699 78.1399 40.5599L77.6899 43.1399H76.8999V43.1599Z" fill="white"/>
<path d="M79.4399 41.1897C79.4199 41.3097 79.3999 41.4297 79.3999 41.5497C79.3999 41.8897 79.4999 42.1597 79.6899 42.3397C79.8799 42.5197 80.1499 42.6197 80.4899 42.6197C80.7999 42.6197 81.0999 42.5097 81.4099 42.2797L81.3299 43.0297C80.9099 43.1597 80.5499 43.2297 80.2299 43.2297C79.1599 43.2297 78.6199 42.6297 78.6199 41.4297C78.6199 40.7197 78.8399 40.1297 79.2999 39.6397C79.7499 39.1597 80.3199 38.9097 80.9999 38.9097C81.4099 38.9097 81.7399 38.9997 81.9899 39.1697C82.2399 39.3497 82.3599 39.5997 82.3599 39.9197C82.3599 40.3697 82.1699 40.7297 81.7899 40.9897C81.3999 41.2497 80.9299 41.3797 80.3799 41.3797C79.9999 41.3797 79.6899 41.3097 79.4399 41.1697V41.1897ZM79.5699 40.6497C79.7699 40.7397 79.9999 40.7797 80.2699 40.7797C80.6699 40.7797 80.9999 40.7197 81.2599 40.5897C81.5099 40.4597 81.6399 40.2697 81.6399 40.0197C81.6399 39.6997 81.4199 39.5397 80.9799 39.5397C80.3099 39.5397 79.8399 39.9097 79.5699 40.6497Z" fill="white"/>
<path d="M85.5499 39.7197C85.3999 39.5897 85.2199 39.5297 85.0099 39.5297C84.7499 39.5297 84.4999 39.6497 84.2599 39.8897C84.0299 40.1297 83.8699 40.4197 83.8099 40.7597L83.3899 43.1497H82.6499L83.3799 38.9897H84.1199L83.9999 39.6497C84.3499 39.1597 84.7999 38.9097 85.3299 38.9097C85.4199 38.9097 85.5599 38.9297 85.7499 38.9697L85.5399 39.7197H85.5499Z" fill="white"/>
<path d="M85.71 41.6197C85.71 40.8797 85.92 40.2397 86.36 39.7097C86.8 39.1797 87.35 38.9097 88.02 38.9097C88.53 38.9097 88.91 39.0497 89.18 39.3197C89.45 39.5897 89.58 39.9797 89.58 40.4797C89.58 40.8797 89.5 41.2897 89.34 41.7297C89.18 42.1597 88.92 42.5197 88.56 42.7997C88.2 43.0797 87.76 43.2297 87.26 43.2297C86.76 43.2297 86.38 43.0897 86.11 42.8097C85.85 42.5297 85.71 42.1297 85.71 41.6197ZM86.48 41.5797C86.48 42.2797 86.77 42.6297 87.37 42.6297C87.81 42.6297 88.15 42.4197 88.41 41.9897C88.67 41.5697 88.8 41.0697 88.8 40.5197C88.8 39.8497 88.5 39.5197 87.92 39.5197C87.62 39.5197 87.36 39.6297 87.13 39.8397C86.9 40.0497 86.74 40.3297 86.64 40.6497C86.54 40.9797 86.49 41.2897 86.49 41.5797H86.48Z" fill="white"/>
</g>
<defs>
<clipPath id="clip0_41_2039">
<rect width="206.11" height="60.62" fill="white"/>
</clipPath>
</defs>
</svg>
