<svg width="31" height="691" viewBox="0 0 31 691" fill="none" xmlns="http://www.w3.org/2000/svg">
<g clip-path="url(#clip0_41_1850)">
<path d="M0.34 574.86L0 690.66H3.12L3.48 574.88L0.34 574.86Z" fill="#996F8F"/>
<path d="M27.4098 574.94L27.0498 690.74H30.1898L30.5298 574.96L27.4098 574.94Z" fill="#996F8F"/>
<path d="M9.99982 569.05L9.81982 567.29C10.4298 567.19 10.8598 566.98 11.1498 566.66C11.4098 566.32 11.5498 565.9 11.5498 565.35C11.5698 564.75 11.4398 564.33 11.1898 564.04C10.9498 563.73 10.6598 563.59 10.3198 563.59C10.1098 563.59 9.92982 563.64 9.76982 563.77C9.63982 563.9 9.50982 564.09 9.39982 564.42C9.31982 564.63 9.20982 565.13 8.99982 565.86C8.76982 566.85 8.46982 567.51 8.12982 567.9C7.62982 568.47 7.02982 568.74 6.29982 568.74C5.87982 568.74 5.42982 568.59 5.03982 568.34C4.64982 568.08 4.33982 567.71 4.12982 567.21C3.93982 566.76 3.81982 566.14 3.81982 565.45C3.83982 564.33 4.07982 563.51 4.57982 562.94C5.07982 562.37 5.73982 562.07 6.56982 562.03L6.62982 563.84C6.15982 563.9 5.83982 564.08 5.60982 564.34C5.41982 564.58 5.31982 564.97 5.31982 565.47C5.31982 566 5.42982 566.39 5.63982 566.7C5.76982 566.89 5.95982 566.97 6.20982 566.97C6.41982 566.97 6.59982 566.89 6.73982 566.73C6.92982 566.49 7.13982 565.95 7.34982 565.06C7.55982 564.17 7.76982 563.54 7.97982 563.1C8.21982 562.7 8.50982 562.37 8.89982 562.13C9.28982 561.9 9.75982 561.77 10.3198 561.77C10.8198 561.79 11.3198 561.93 11.7598 562.19C12.2098 562.48 12.5398 562.9 12.7598 563.42C12.9698 563.94 13.0798 564.58 13.0798 565.36C13.0598 566.49 12.8098 567.35 12.2698 567.98C11.7498 568.58 10.9798 568.93 9.96982 569.05" fill="#996F8F"/>
<path d="M3.97021 560.41V558.6L8.86021 558.62C9.64021 558.62 10.1402 558.62 10.3502 558.57C10.7402 558.47 11.0502 558.31 11.2602 558C11.4702 557.71 11.6002 557.32 11.6002 556.82C11.6002 556.32 11.4902 555.93 11.2802 555.65C11.0702 555.38 10.8302 555.23 10.5002 555.18C10.1902 555.13 9.69021 555.1 8.96021 555.1L3.99021 555.08V553.27L8.73021 553.3C9.80021 553.3 10.5602 553.35 11.0102 553.45C11.4502 553.56 11.8202 553.72 12.1402 554C12.4302 554.26 12.6902 554.62 12.8702 555.05C13.0502 555.49 13.1302 556.05 13.1302 556.76C13.1302 557.6 13.0302 558.25 12.8202 558.69C12.6302 559.14 12.3702 559.48 12.0402 559.74C11.7302 559.98 11.3902 560.16 11.0502 560.24C10.5302 560.37 9.76021 560.42 8.77022 560.42L3.97021 560.4V560.41Z" fill="#996F8F"/>
<path d="M12.96 551.59L4 551.56L4.02 548.66C4.02 547.56 4.07 546.85 4.17 546.51C4.28 546.01 4.59 545.56 5.04 545.22C5.49 544.88 6.08 544.7 6.79 544.7C7.34 544.7 7.79 544.81 8.17 545.01C8.56 545.22 8.85 545.48 9.06 545.77C9.27 546.09 9.42 546.4 9.48 546.71C9.56 547.16 9.61 547.78 9.59 548.6V549.8H12.99L12.97 551.6L12.96 551.59ZM5.52 549.78H8.08V548.78C8.08 548.07 8.05 547.6 7.93 547.36C7.83 547.13 7.69 546.92 7.49 546.79C7.29 546.66 7.07 546.58 6.81 546.58C6.47 546.58 6.2 546.66 5.99 546.85C5.8 547.06 5.65 547.29 5.6 547.58C5.55 547.81 5.54 548.24 5.54 548.89L5.52 549.78Z" fill="#996F8F"/>
<path d="M12.9898 543.44L4.02979 543.4L4.03978 536.79L5.54979 536.8V541.62H7.53978L7.54979 537.13H9.05979L9.03978 541.62L11.4898 541.64L11.4998 536.63H13.0198L12.9898 543.44Z" fill="#996F8F"/>
<path d="M13.0201 535.27L4.06006 535.25V531.45C4.06006 530.5 4.16006 529.8 4.32006 529.36C4.48006 528.92 4.77006 528.58 5.19006 528.32C5.58006 528.08 6.06006 527.93 6.60006 527.93C7.26006 527.93 7.83006 528.14 8.27006 528.53C8.71006 528.93 9.00006 529.52 9.10006 530.29C9.33006 529.93 9.57006 529.58 9.84006 529.35C10.1301 529.08 10.6001 528.74 11.3101 528.31L13.0601 527.23L13.0401 529.4L11.0801 530.66C10.3801 531.15 9.95006 531.45 9.77006 531.63C9.59006 531.81 9.46006 531.99 9.40006 532.18C9.34006 532.36 9.30006 532.67 9.30006 533.07V533.44L13.0401 533.46L13.0201 535.26V535.27ZM7.86006 533.46V532.12C7.86006 531.26 7.83006 530.71 7.76006 530.52C7.68006 530.29 7.57006 530.12 7.37006 530C7.19006 529.89 6.97006 529.81 6.71006 529.81C6.40006 529.81 6.16006 529.91 5.98006 530.05C5.79006 530.23 5.66006 530.44 5.62006 530.73C5.59006 530.88 5.57006 531.33 5.57006 532.04V533.46H7.85006H7.86006Z" fill="#996F8F"/>
<path d="M13.0401 526.5L4.08008 526.47V524.67L13.0401 524.69V526.5Z" fill="#996F8F"/>
<path d="M13.0498 523.14L4.08984 523.11V521.36L10.1198 517.69L4.09984 517.68V515.99L13.0698 516.01V517.84L7.17984 521.46L13.0698 521.48L13.0498 523.14Z" fill="#996F8F"/>
<path d="M13.0801 512.29L5.62012 512.27V514.91H4.12012L4.14012 507.79L5.64012 507.81V510.44L13.1001 510.48L13.0801 512.29Z" fill="#996F8F"/>
<path d="M13.1001 506.84L4.14014 506.81L4.15014 500.21H5.66014V505.03H7.65014L7.66014 500.53H9.17014L9.15014 505.05H11.5901L11.6101 500.06H13.1301L13.1001 506.84Z" fill="#996F8F"/>
<path d="M13.1202 498.7L4.16016 498.67V496.91L10.1902 493.24L4.17016 493.22V491.55L13.1402 491.57V493.38L7.25016 497.01L13.1202 497.02V498.7Z" fill="#996F8F"/>
<path d="M4.18994 489.82L4.20994 486.52C4.20994 485.79 4.25994 485.24 4.38994 484.84C4.52994 484.31 4.80994 483.87 5.20994 483.48C5.59994 483.11 6.07994 482.85 6.66994 482.62C7.23994 482.44 7.94994 482.36 8.76994 482.35C9.50994 482.37 10.1599 482.45 10.6899 482.62C11.3399 482.86 11.8499 483.19 12.2799 483.59C12.5699 483.9 12.7999 484.33 12.9799 484.87C13.1099 485.27 13.1699 485.79 13.1699 486.47L13.1499 489.85L4.18994 489.82ZM5.70994 488.03L11.6499 488.05V486.71C11.6499 486.21 11.6199 485.85 11.5699 485.61C11.4899 485.32 11.3599 485.09 11.1999 484.9C11.0199 484.71 10.7299 484.56 10.3399 484.41C9.91994 484.28 9.38994 484.25 8.68994 484.23C8.00994 484.23 7.45994 484.28 7.09994 484.41C6.72994 484.54 6.43994 484.7 6.22994 484.91C6.01994 485.14 5.86994 485.41 5.80994 485.75C5.74994 485.99 5.70994 486.48 5.70994 487.22V488.03Z" fill="#996F8F"/>
<path d="M13.17 481.02L4.20996 480.99L4.22996 474.37H5.72996V479.2H7.71996L7.73996 474.7L9.23996 474.71L9.22996 479.2L11.67 479.21L11.69 474.21H13.19L13.17 481.02Z" fill="#996F8F"/>
<path d="M13.2102 472.86L4.24023 472.83V471.08L10.2802 467.39H4.26023V465.71L13.2202 465.72V467.54L7.32023 471.18L13.2102 471.19V472.86Z" fill="#996F8F"/>
<path d="M9.95014 458.27L10.5001 456.51C11.4701 456.78 12.2001 457.25 12.6801 457.87C13.1501 458.52 13.3901 459.29 13.3901 460.25C13.3901 461.45 12.9701 462.43 12.1601 463.19C11.3501 463.97 10.2301 464.34 8.83014 464.34C7.34014 464.34 6.19014 463.95 5.37014 463.18C4.55014 462.39 4.14014 461.4 4.14014 460.12C4.14014 459.04 4.48014 458.13 5.11014 457.45C5.50014 457.05 6.03014 456.74 6.76014 456.54L7.18014 458.32C6.73014 458.42 6.36014 458.64 6.08014 458.98C5.82014 459.32 5.68014 459.72 5.68014 460.21C5.68014 460.87 5.92014 461.42 6.39014 461.83C6.86014 462.25 7.64014 462.46 8.70014 462.46C9.83014 462.46 10.6301 462.27 11.1301 461.86C11.6001 461.46 11.8401 460.92 11.8601 460.26C11.8601 459.79 11.7001 459.39 11.4101 459.03C11.0901 458.67 10.6001 458.43 9.95014 458.27Z" fill="#996F8F"/>
<path d="M13.26 455.24L4.29004 455.21V453.4L13.26 453.43V455.24Z" fill="#996F8F"/>
<path d="M13.2798 443.81V445.77L11.2398 446.53L11.2198 450.12L13.2598 450.88V452.82L4.2998 449.33L4.3198 447.4L13.2798 443.81ZM9.7198 447.09L6.3898 448.35L9.7098 449.56L9.7298 447.08L9.7198 447.09Z" fill="#996F8F"/>
<path d="M13.2901 440.22L4.33008 440.19L4.35008 434.05L5.85008 434.07V438.41H7.96008L7.97008 434.64H9.49008L9.48008 438.41L13.2901 438.42V440.22Z" fill="#996F8F"/>
<path d="M13.3199 432.82L4.35986 432.79V431.01L13.3199 431.02V432.82Z" fill="#996F8F"/>
<path d="M13.3299 429.48L4.35986 429.45V427.72L10.3999 424.03L4.37986 424.01V422.33L13.3399 422.36V424.17L7.44986 427.78L13.3399 427.81L13.3299 429.48Z" fill="#996F8F"/>
<path d="M13.3801 412.57L13.3601 414.5L11.3401 415.29L11.3201 418.88L13.3401 419.64V421.55L4.39014 418.07V416.13L13.3701 412.57H13.3801ZM9.81014 415.85L6.49014 417.11L9.81014 418.32V415.84V415.85Z" fill="#996F8F"/>
<path d="M13.3799 411.8L4.42992 411.77L4.41992 410.02L10.4499 406.33L4.42992 406.32V404.65L13.3899 404.67V406.49L7.50992 410.1L13.3799 410.13V411.8Z" fill="#996F8F"/>
<path d="M10.1198 397.21L10.6698 395.46C11.6598 395.72 12.3798 396.19 12.8498 396.79C13.3198 397.42 13.5798 398.23 13.5598 399.18C13.5598 400.38 13.1598 401.36 12.3498 402.12C11.5298 402.9 10.4298 403.25 9.0198 403.27C7.5198 403.25 6.3698 402.87 5.5398 402.11C4.7198 401.32 4.3098 400.3 4.3298 399.04C4.3298 397.96 4.6498 397.05 5.2798 396.39C5.6698 395.97 6.2198 395.66 6.9298 395.45L7.3498 397.26C6.8998 397.37 6.5398 397.58 6.2698 397.92C5.9998 398.24 5.8698 398.66 5.8698 399.12C5.8698 399.8 6.0998 400.37 6.5798 400.75C7.0298 401.19 7.8298 401.4 8.8798 401.4C10.0298 401.4 10.8198 401.21 11.3098 400.79C11.7998 400.39 12.0398 399.85 12.0398 399.2C12.0398 398.73 11.8898 398.31 11.5898 397.97C11.2698 397.6 10.7998 397.37 10.1298 397.21" fill="#996F8F"/>
<path d="M13.4402 394.18L4.47021 394.14V392.35L13.4402 392.36V394.18Z" fill="#996F8F"/>
<path d="M13.4402 390.82L4.49023 390.79V384.17H6.01023L6.00023 389.01H7.99023L8.00023 384.51H9.53023L9.49023 389.03H11.9402L11.9502 384.03H13.4602L13.4402 390.82Z" fill="#996F8F"/>
<path d="M13.4698 382.66L4.50977 382.64L4.52977 378.84C4.52977 377.87 4.58977 377.19 4.76977 376.75C4.92977 376.3 5.21977 375.97 5.63977 375.73C6.03977 375.46 6.50977 375.33 7.04977 375.33C7.70977 375.33 8.27977 375.54 8.71977 375.91C9.15977 376.33 9.44977 376.9 9.53977 377.69C9.76977 377.3 10.0298 376.98 10.2798 376.74C10.5698 376.48 11.0398 376.16 11.7398 375.72L13.4898 374.62V376.79L11.5498 378.08C10.8398 378.53 10.4198 378.86 10.2198 379.02C10.0398 379.21 9.90977 379.39 9.84977 379.59C9.78977 379.77 9.74977 380.08 9.74977 380.48V380.85L13.4698 380.87V382.67V382.66ZM8.30977 380.85V379.51C8.30977 378.65 8.27977 378.12 8.20977 377.89C8.12977 377.68 8.01977 377.52 7.81977 377.37C7.63977 377.26 7.41977 377.21 7.13977 377.21C6.84977 377.21 6.60977 377.27 6.40977 377.44C6.21977 377.59 6.11977 377.84 6.04977 378.12C6.02977 378.25 6.01977 378.7 6.01977 379.45V380.86H8.29977L8.30977 380.85Z" fill="#996F8F"/>
<path d="M13.5198 365.73L13.4998 367.7L11.4598 368.46L11.4398 372.05L13.4798 372.81V374.72L4.52979 371.24L4.54979 369.31L13.5098 365.72L13.5198 365.73ZM9.93978 369.03L6.61978 370.29L9.93978 371.5V369.02V369.03Z" fill="#996F8F"/>
<path d="M18.02 510V506.68C18.04 505.95 18.1 505.37 18.21 504.98C18.37 504.46 18.63 504.01 19.03 503.64C19.42 503.27 19.9 503.01 20.49 502.8C21.06 502.62 21.77 502.51 22.61 502.51C23.35 502.53 23.99 502.62 24.52 502.8C25.17 503.03 25.7 503.35 26.09 503.77C26.4 504.06 26.64 504.5 26.82 505.02C26.93 505.42 27.01 505.97 27 506.64V510.02L18.02 510ZM19.54 508.21L25.48 508.23V506.86C25.48 506.39 25.45 506 25.4 505.79C25.32 505.5 25.19 505.24 25.03 505.06C24.85 504.85 24.56 504.7 24.17 504.57C23.77 504.44 23.22 504.38 22.54 504.38C21.84 504.38 21.31 504.44 20.94 504.57C20.57 504.68 20.28 504.86 20.08 505.07C19.87 505.28 19.71 505.57 19.64 505.93C19.58 506.16 19.54 506.66 19.54 507.4V508.21Z" fill="#996F8F"/>
<path d="M27.02 501.2L18.04 501.17L18.06 494.53H19.58L19.56 499.35H21.53L21.55 494.86L23.09 494.87L23.07 499.35L25.5 499.37L25.51 494.39H27.03L27.02 501.2Z" fill="#996F8F"/>
<path d="M23.7698 483.99L24.3198 482.23C25.2898 482.5 26.0198 482.97 26.4898 483.61C26.9798 484.24 27.2198 485 27.1998 485.97C27.1998 487.17 26.7798 488.15 25.9898 488.9C25.1798 489.69 24.0598 490.05 22.6398 490.05C21.1698 490.03 19.9998 489.68 19.1898 488.89C18.3698 488.11 17.9398 487.11 17.9598 485.83C17.9398 484.75 18.2798 483.84 18.9298 483.16C19.2998 482.77 19.8698 482.46 20.5798 482.27L20.9998 484.05C20.5298 484.15 20.1598 484.36 19.9198 484.7C19.6298 485.04 19.4798 485.44 19.4998 485.95C19.4798 486.6 19.7298 487.16 20.2098 487.55C20.6798 487.99 21.4598 488.2 22.5198 488.2C23.6498 488.2 24.4598 487.99 24.9298 487.6C25.4198 487.18 25.6598 486.66 25.6598 486C25.6598 485.53 25.5098 485.11 25.2098 484.77C24.8998 484.43 24.4298 484.17 23.7698 484.01" fill="#996F8F"/>
<path d="M22.67 481.23C21.76 481.23 21 481.1 20.36 480.83C19.92 480.62 19.5 480.36 19.15 479.99C18.79 479.63 18.52 479.25 18.34 478.84C18.11 478.29 17.98 477.63 17.98 476.9C17.98 475.59 18.42 474.54 19.24 473.76C20.05 472.95 21.18 472.55 22.65 472.55C24.09 472.55 25.22 472.95 26.05 473.76C26.86 474.55 27.26 475.59 27.28 476.91C27.26 478.24 26.84 479.3 26.03 480.08C25.22 480.86 24.09 481.25 22.67 481.23ZM22.6 479.37C23.62 479.37 24.38 479.18 24.91 478.69C25.44 478.22 25.72 477.62 25.72 476.91C25.72 476.18 25.46 475.62 24.93 475.13C24.41 474.66 23.64 474.45 22.6 474.45C21.56 474.43 20.8 474.66 20.3 475.1C19.77 475.55 19.52 476.14 19.52 476.9C19.5 477.64 19.76 478.23 20.28 478.7C20.8 479.17 21.56 479.38 22.59 479.38" fill="#996F8F"/>
<path d="M27.11 471.32L18.23 471.31V469.48L25.59 469.49L25.6 465H27.12L27.11 471.32Z" fill="#996F8F"/>
<path d="M22.7001 464.27C21.8101 464.27 21.0501 464.12 20.4001 463.87C19.9601 463.64 19.5401 463.37 19.1901 463C18.8301 462.66 18.5601 462.26 18.3801 461.85C18.1501 461.27 18.0201 460.64 18.0401 459.91C18.0401 458.6 18.4601 457.53 19.2901 456.75C20.1001 455.96 21.2301 455.57 22.7001 455.59C24.1401 455.59 25.2701 455.98 26.1001 456.75C26.9101 457.56 27.3101 458.61 27.3101 459.92C27.3101 461.26 26.8901 462.3 26.0801 463.09C25.2701 463.87 24.1401 464.27 22.7001 464.27ZM22.6501 462.4C23.6701 462.4 24.4301 462.16 24.9601 461.7C25.4901 461.21 25.7701 460.65 25.7701 459.92C25.7701 459.21 25.5101 458.59 24.9801 458.12C24.4601 457.67 23.6901 457.46 22.6501 457.44C21.6101 457.44 20.8501 457.65 20.3501 458.1C19.8201 458.54 19.5701 459.14 19.5601 459.88C19.5601 460.62 19.8201 461.24 20.3401 461.69C20.8601 462.14 21.6201 462.39 22.6501 462.39" fill="#996F8F"/>
<path d="M27.1602 454.38L18.1802 454.35L18.1902 451.63L24.3102 450.05L18.1902 448.45L18.2102 445.71L27.1902 445.74L27.1702 447.41L20.1002 447.39L27.1702 449.17V450.94L20.1002 452.68L27.1602 452.72V454.38Z" fill="#996F8F"/>
<path d="M18.2002 444.11L18.2202 440.53C18.2202 439.8 18.2502 439.28 18.3202 438.91C18.4002 438.59 18.5102 438.26 18.7102 437.99C18.9002 437.73 19.1502 437.49 19.4502 437.31C19.7702 437.1 20.1102 437.02 20.5202 437.02C20.9302 437.02 21.3302 437.15 21.6702 437.38C22.0302 437.61 22.3002 437.91 22.4802 438.32C22.6302 437.75 22.9002 437.35 23.2902 437.04C23.6802 436.75 24.1102 436.62 24.6302 436.62C25.0202 436.62 25.4202 436.72 25.8102 436.89C26.2002 437.1 26.4902 437.36 26.7202 437.67C26.9502 438.01 27.0902 438.4 27.1402 438.9C27.1902 439.21 27.1902 439.92 27.2002 441.07V444.13L18.2102 444.11H18.2002ZM19.7402 442.31H21.8102L21.8302 441.13C21.8102 440.4 21.8102 439.97 21.7802 439.8C21.7502 439.49 21.6502 439.23 21.4702 439.06C21.2902 438.88 21.0702 438.8 20.7702 438.8C20.5002 438.8 20.2702 438.86 20.1102 439.01C19.9202 439.19 19.8202 439.4 19.7702 439.71C19.7502 439.89 19.7402 440.39 19.7402 441.25V442.32V442.31ZM23.3302 442.31L25.6802 442.33V440.65C25.6802 439.99 25.6602 439.58 25.6302 439.4C25.5802 439.13 25.4502 438.91 25.2702 438.72C25.0902 438.56 24.8302 438.48 24.5302 438.48C24.2702 438.48 24.0602 438.56 23.8702 438.67C23.6902 438.82 23.5502 438.98 23.4702 439.25C23.3902 439.49 23.3402 440.03 23.3402 440.85V442.31H23.3302Z" fill="#996F8F"/>
<path d="M27.21 435.35L18.23 435.33V433.52L27.21 433.54V435.35Z" fill="#996F8F"/>
<path d="M27.24 423.94V425.87L25.19 426.65V430.26L27.23 431V432.93L18.25 429.47V427.53L27.25 423.96L27.24 423.94ZM23.67 427.22L20.35 428.47L23.67 429.68V427.22Z" fill="#996F8F"/>
<path d="M22.5301 681.55L7.6001 686.79L7.6201 683.52L18.6501 679.8L7.6301 676.15L7.6501 672.93L22.5501 678.28L22.5301 681.55Z" fill="#996F8F"/>
<path d="M22.5699 670.47L7.6499 670.42L7.6699 667.4L22.5799 667.45L22.5699 670.47Z" fill="#996F8F"/>
<path d="M17.1402 656.59L14.6202 656.57L14.6502 650.08L20.5902 650.1C21.2002 650.73 21.7502 651.65 22.2102 652.83C22.6602 654.03 22.8902 655.26 22.9102 656.49C22.8902 658.04 22.5702 659.42 21.9102 660.57C21.2502 661.72 20.3102 662.61 19.1002 663.18C17.8702 663.75 16.5302 664.05 15.1002 664.05C13.5302 664.05 12.1602 663.71 10.9402 663.05C9.71018 662.4 8.80018 661.45 8.17018 660.2C7.65018 659.23 7.43018 658.03 7.43018 656.61C7.43018 654.78 7.82018 653.31 8.61018 652.27C9.39018 651.22 10.4502 650.57 11.8302 650.28L12.3802 653.27C11.6502 653.46 11.0702 653.87 10.6502 654.45C10.2302 655.02 10.0202 655.74 10.0202 656.62C10.0202 657.91 10.4202 658.98 11.2702 659.76C12.0902 660.54 13.3402 660.94 14.9702 660.94C16.7502 660.96 18.0902 660.55 18.9802 659.76C19.8502 658.97 20.3202 657.95 20.3402 656.65C20.3402 656.04 20.2102 655.42 19.9702 654.76C19.7102 654.15 19.4002 653.58 19.0602 653.14L17.1702 653.12L17.1502 656.58L17.1402 656.59Z" fill="#996F8F"/>
<path d="M22.64 646.39L7.72998 646.34V643.33L22.66 643.37L22.64 646.39Z" fill="#996F8F"/>
<path d="M22.6599 639.38L7.85986 639.33V636.32L20.1599 636.34L20.1699 628.9L22.6799 628.91L22.6599 639.38Z" fill="#996F8F"/>
<path d="M22.7298 612.23V615.48L19.3498 616.76L19.3298 622.76L22.6998 624.01V627.2L7.7998 621.38V618.21L22.7298 612.24V612.23ZM16.8098 617.73L11.2798 619.82L16.8098 621.86V617.73Z" fill="#996F8F"/>
<path d="M7.83008 609.54L7.85008 604.06C7.85008 602.81 7.95008 601.88 8.14008 601.23C8.40008 600.37 8.85008 599.61 9.53008 598.98C10.1801 598.37 10.9701 597.9 11.9401 597.56C12.8901 597.25 14.0801 597.09 15.4501 597.09C16.7001 597.09 17.7501 597.27 18.6401 597.56C19.7201 597.93 20.6001 598.45 21.2601 599.16C21.7801 599.69 22.1701 600.37 22.4601 601.28C22.6501 601.94 22.7701 602.85 22.7701 603.93L22.7501 609.58L7.83008 609.55V609.54ZM10.3601 606.55L20.2401 606.58V604.33C20.2401 603.47 20.2101 602.89 20.1101 602.5C20.0001 602.01 19.7901 601.61 19.4801 601.3C19.2101 600.96 18.7201 600.7 18.0401 600.51C17.3901 600.28 16.4901 600.2 15.3201 600.19C14.1701 600.19 13.2801 600.27 12.6701 600.5C12.0401 600.69 11.5701 600.98 11.2301 601.32C10.8701 601.71 10.6301 602.16 10.5201 602.71C10.4201 603.13 10.3701 603.96 10.3601 605.19V606.55Z" fill="#996F8F"/>
<path d="M15.4101 594.08C13.8901 594.08 12.6301 593.87 11.5901 593.4C10.8101 593.06 10.1301 592.59 9.54012 591.99C8.92012 591.39 8.49012 590.76 8.20012 590.05C7.81012 589.13 7.62012 588.06 7.62012 586.85C7.64012 584.67 8.32012 582.89 9.69012 581.58C11.0701 580.24 12.9601 579.61 15.4001 579.61C17.8301 579.61 19.7001 580.26 21.0801 581.58C22.4401 582.91 23.1001 584.67 23.1001 586.85C23.0801 589.07 22.4001 590.83 21.0501 592.14C19.6901 593.43 17.8001 594.08 15.4201 594.08M15.3301 590.97C17.0301 590.97 18.3101 590.58 19.2001 589.82C20.0701 589.04 20.5301 588.04 20.5301 586.83C20.5301 585.63 20.0801 584.65 19.2201 583.89C18.3601 583.1 17.0701 582.71 15.3201 582.71C13.6101 582.71 12.3301 583.07 11.4901 583.84C10.6301 584.57 10.2101 585.57 10.2101 586.82C10.2101 588.07 10.6301 589.08 11.4901 589.85C12.3301 590.61 13.6101 590.98 15.3401 590.98" fill="#996F8F"/>
<path d="M21.57 344.78L7.25 344.73L7.27 340.07C7.27 338.1 7.95 337.42 8.74 336.88C9.52 336.39 10.37 336.31 10.65 336.31C12.43 336.33 13.63 336.94 14.03 338.79H14.13C14.37 336.75 15.6 335.86 17.58 335.86C21.24 335.88 21.59 338.55 21.59 340.18L21.57 344.77V344.78ZM13.29 342.94V340.29C13.27 338.85 12.42 338.15 11.02 338.15C9.82 338.15 8.85 338.81 8.85 340.35L8.83 342.92L13.28 342.94H13.29ZM19.98 342.95V340.38C20 338.44 18.6 337.73 17.55 337.73C15.27 337.73 14.88 339.14 14.86 341V342.94L19.97 342.96L19.98 342.95Z" fill="#996F8F"/>
<path d="M7.30004 330.27V327.96L21.63 323.35L21.61 325.39L18.2 326.41L18.18 331.94L21.59 333.02V334.86L7.29004 330.27H7.30004ZM8.98004 329.17V329.2L16.6 331.47L16.62 326.89L8.98004 329.17Z" fill="#996F8F"/>
<path d="M7.35031 312.19L21.6703 312.24L21.6503 314.73L9.23031 320.34V320.38L21.6303 320.42V322.04L7.32031 322.01L7.33031 319.42L19.6003 313.89V313.86L7.35031 313.81V312.19Z" fill="#996F8F"/>
<path d="M11.3201 303.29C10.5101 303.27 9.69008 303.32 9.23008 303.69C8.78008 304.08 8.62008 304.92 8.62008 305.31C8.62008 306.81 9.53008 307.41 9.72008 307.46C9.88008 307.52 10.2401 307.88 12.7001 307.9H16.5201C20.0301 307.92 20.4501 306.77 20.4701 305.36C20.4701 304.81 20.2801 303.11 17.4801 303.09V301.2C22.0101 301.14 21.9901 304.32 21.9901 305.26C21.9901 307.04 21.8601 309.77 16.3101 309.76H12.2701C8.23008 309.74 7.08008 307.95 7.08008 305.13C7.10008 302.3 8.57008 301.21 11.3301 301.41V303.29H11.3201Z" fill="#996F8F"/>
<path d="M16.4701 299.35L11.7601 299.33C8.9101 299.33 7.1001 297.86 7.1001 294.82C7.1201 291.79 8.9401 290.32 11.7901 290.34L16.4801 290.36C20.4601 290.36 22.0101 291.83 22.0101 294.87C21.9901 297.9 20.4201 299.37 16.4601 299.35M16.5701 292.21L11.7301 292.19C8.7401 292.19 8.6401 294.24 8.6201 294.81C8.6201 295.39 8.7201 297.45 11.7101 297.46L16.5501 297.48C19.6901 297.48 20.4801 296.57 20.4801 294.86C20.4801 293.15 19.7001 292.22 16.5701 292.21Z" fill="#996F8F"/>
<path d="M21.7299 287.9L7.41992 287.85L7.42992 286.04L20.1499 286.07L20.1599 280.81L21.7499 280.83L21.7299 287.9Z" fill="#996F8F"/>
<path d="M16.5302 279.84L11.8202 279.82C8.97016 279.82 7.16016 278.35 7.16016 275.31C7.18016 272.28 9.00016 270.81 11.8502 270.83L16.5402 270.85C20.5202 270.85 22.0702 272.32 22.0702 275.36C22.0502 278.39 20.4802 279.86 16.5202 279.84M16.6202 272.71L11.7802 272.69C8.79016 272.69 8.69016 274.74 8.67016 275.31C8.67016 275.89 8.77016 277.95 11.7602 277.96L16.6002 277.98C19.7402 277.98 20.5302 277.07 20.5302 275.36C20.5302 273.65 19.7502 272.72 16.6202 272.71Z" fill="#996F8F"/>
<path d="M21.8 266.66V268.36L7.47998 268.33L7.48998 265.37L19.51 261.79V261.76L7.50998 258.07V255.06L21.83 255.11V256.92L9.09998 256.89V256.94L21.81 260.97V262.7L9.05998 266.58V266.63L21.8 266.66Z" fill="#996F8F"/>
<path d="M21.84 252.41L7.52002 252.36L7.54002 247.7C7.54002 245.73 8.22002 245.05 9.01002 244.51C9.79002 244.02 10.64 243.94 10.92 243.94C12.7 243.96 13.9 244.57 14.3 246.42H14.4C14.64 244.38 15.87 243.49 17.85 243.49C21.51 243.51 21.86 246.18 21.86 247.81L21.84 252.4V252.41ZM13.56 250.56V247.91C13.54 246.47 12.69 245.77 11.29 245.77C10.09 245.77 9.12002 246.43 9.12002 247.97L9.10002 250.54L13.55 250.56H13.56ZM20.26 250.58V248.01C20.28 246.07 18.88 245.36 17.83 245.36C15.55 245.36 15.16 246.77 15.14 248.63V250.57L20.25 250.59L20.26 250.58Z" fill="#996F8F"/>
<path d="M21.8801 239.12V240.94L7.56006 240.9V239.07L21.8801 239.12Z" fill="#996F8F"/>
<path d="M7.59008 233.08V230.77L21.9201 226.16L21.9001 228.2L18.4901 229.22L18.4701 234.75L21.8801 235.83V237.67L7.58008 233.08H7.59008ZM9.27008 231.98V232.01L16.8901 234.28L16.9101 229.7L9.27008 231.98Z" fill="#996F8F"/>
<path d="M17.6699 219.83H18.0899C20.0299 219.83 20.6499 218.62 20.6499 217.44C20.6699 216 20.0499 214.88 18.3399 214.88C15.1699 214.86 15.5099 221.29 11.2099 221.27C8.6699 221.27 7.3299 219.46 7.3399 217.06C7.3399 214.44 8.6199 212.98 11.5299 213.11V215C9.9599 214.98 8.9199 215.47 8.9199 217.2C8.9199 218.28 9.4699 219.4 11.0099 219.4C14.1599 219.42 13.7299 212.99 18.2699 213.01C21.2799 213.01 22.2499 215.1 22.2299 217.46C22.2599 221.68 19.0299 221.67 17.6699 221.62V219.82V219.83Z" fill="#996F8F"/>
<path d="M21.9601 209.41V211.27H19.8901L19.9101 209.41H21.9601Z" fill="#996F8F"/>
<path d="M7.67016 203.95V201.64L22.0002 197.03L21.9802 199.07L18.5702 200.09L18.5502 205.62L21.9602 206.7V208.54L7.66016 203.95H7.67016ZM9.36016 202.85V202.88L16.9802 205.15L17.0002 200.57L9.36016 202.85Z" fill="#996F8F"/>
<path d="M22.0099 194.29V196.16H19.9399L19.9499 194.29H22.0099Z" fill="#996F8F"/>
<path d="M22.03 188.41L7.70996 188.36L7.73996 181H9.32996L9.30996 186.55L13.91 186.57L13.92 181.41L15.51 181.42L15.49 186.57L20.44 186.58L20.46 180.92H22.04L22.03 188.41Z" fill="#996F8F"/>
<path d="M22.2599 176.43C22.2599 178.6 21.2899 179.94 18.9899 179.88L19.0099 178.04C19.5799 178.04 20.9399 178.02 20.9399 176.37C20.9399 175.4 20.4499 174.64 19.4199 174.64C17.6399 174.64 17.5799 179.64 14.5799 179.62C13.5299 179.62 11.8499 178.97 11.8599 176.16C11.8599 174.38 12.7199 172.86 14.7099 173.01L14.6899 174.81C13.6399 174.79 13.0899 175.34 13.0899 176.38C13.0699 177.25 13.5599 177.93 14.4299 177.93C16.1899 177.93 16.1599 172.93 19.2199 172.95C21.4199 172.95 22.2599 174.47 22.2599 176.44" fill="#996F8F"/>
<path d="M12.0702 171.07H10.1402L9.41016 169.44L12.0602 169.46L12.0802 167.28H13.3102L13.2902 169.46L19.4202 169.48C20.0502 169.48 20.8602 169.48 20.8802 167.99C20.8802 167.88 20.8302 167.62 20.8002 167.26H22.0502C22.0802 167.79 22.2102 168.33 22.2102 168.86C22.1902 170.41 21.5602 171.11 20.4102 171.09L13.2902 171.07V172.72H12.0602V171.07H12.0702Z" fill="#996F8F"/>
<path d="M20.6601 161.32V161.35C21.8101 161.85 22.2901 162.63 22.2901 163.87C22.2901 165.99 20.9101 166.6 18.9901 166.59C15.9601 166.59 15.8401 163.61 15.9001 161.33C14.5701 161.28 13.1201 161.27 13.1201 163.01C13.1201 164.09 13.8501 164.68 14.9001 164.58V166.34C12.6501 166.26 11.8901 165.06 11.8901 162.94C11.9101 160.37 13.2301 159.69 14.9201 159.7H19.7401C20.5301 159.72 21.3401 159.64 22.1201 159.52L22.1001 161.3H20.6601V161.32ZM19.1201 164.97C20.0901 164.97 20.9601 164.5 20.9601 163.42C20.9601 162.42 20.3601 161.19 17.1301 161.33C17.1501 162.88 17.0001 164.97 19.1201 164.97Z" fill="#996F8F"/>
<path d="M22.1301 155.5L22.1101 157.12L7.81006 157.09V155.46L13.1201 155.48V155.43C12.3301 154.86 11.9201 154.17 11.9201 153.21C11.9201 149.99 14.8001 149.91 17.3101 149.93C21.7101 149.95 22.3401 151.56 22.3301 153.17C22.3301 154.22 21.8801 154.92 20.9401 155.47V155.52H22.1401L22.1301 155.5ZM21.0001 153.67C21.0001 151.63 18.8301 151.62 17.3101 151.62C14.6401 151.62 13.2501 151.85 13.2501 153.59C13.2501 155.4 15.3901 155.48 16.7101 155.48C18.2301 155.48 21.0001 155.67 21.0001 153.67Z" fill="#996F8F"/>
<path d="M22.1501 146.46V148.08L7.83008 148.05V146.42L22.1501 146.46Z" fill="#996F8F"/>
<path d="M17.6801 142.75C20.4801 142.75 21.0501 142.01 21.0501 140.73C21.0501 139.63 20.1601 139.05 19.1401 138.98L19.1601 137.2C21.3801 137.22 22.3801 138.59 22.3801 140.69C22.3801 142.81 21.7301 144.49 17.3201 144.48C14.3801 144.48 11.9601 144.14 11.9801 140.66C11.9801 137.81 13.5501 137.1 16.8701 137.12H17.7101L17.6901 142.75H17.6801ZM16.4601 138.84C13.5501 138.82 13.1901 139.65 13.1901 140.83C13.1701 141.87 13.6801 142.72 16.4401 142.74L16.4601 138.84Z" fill="#996F8F"/>
<path d="M15.3999 129.88C13.7499 129.83 13.3099 130.64 13.3099 131.26C13.3099 132.52 13.8899 133.36 16.6399 133.38C19.8899 133.4 21.0599 132.98 21.0599 131.29C21.0599 130.92 20.6699 129.79 18.8599 129.83L18.8799 128.13C21.6899 128.07 22.4099 130.17 22.3899 131.28C22.3899 133.4 21.7399 135.08 17.3299 135.07C14.3999 135.07 11.9699 134.73 11.9899 131.25C11.9899 129.24 13.1699 128.08 15.3999 128.19V129.87V129.88Z" fill="#996F8F"/>
<path d="M7.8999 126.02V124.19H9.6499V126.02H7.8999ZM22.2199 124.34V125.96L12.2099 125.94V124.31L22.2199 124.34Z" fill="#996F8F"/>
<path d="M22.2403 117.31L15.3003 117.29C14.3003 117.29 13.3603 117.56 13.3603 118.86C13.3603 119.36 13.6503 120.04 14.0203 120.28C14.5203 120.57 15.1203 120.65 15.4903 120.65L22.2203 120.67V122.3L14.2903 122.27C13.5903 122.27 12.9003 122.32 12.2003 122.37L12.2203 120.65H13.4703V120.6C12.4003 120.13 12.0303 119.27 12.0303 118.11C12.0303 117.19 12.4203 116.14 13.3203 115.76C12.2503 115.21 12.0403 114.29 12.0403 113.38C12.0403 112.33 12.2803 110.65 14.6403 110.65L22.2403 110.68V112.3L15.3003 112.28C14.3003 112.28 13.3603 112.55 13.3603 113.87C13.3603 114.48 13.3803 114.66 13.7303 115.1C14.1203 115.57 15.1103 115.65 15.4903 115.65L22.2203 115.68V117.3L22.2403 117.31Z" fill="#996F8F"/>
<path d="M7.9502 108.71V106.88L9.7002 106.9V108.71H7.9502ZM22.2702 107.03V108.65L12.2602 108.63V107L22.2702 107.03Z" fill="#996F8F"/>
<path d="M17.79 103.32C20.59 103.32 21.14 102.58 21.16 101.3C21.16 100.2 20.27 99.6199 19.25 99.5499L19.27 97.7699C21.49 97.7899 22.49 99.1599 22.49 101.26C22.47 103.38 21.84 105.06 17.43 105.05C14.49 105.05 12.07 104.71 12.09 101.23C12.09 98.3799 13.66 97.6699 16.98 97.6899H17.82L17.8 103.32H17.79ZM16.58 99.4099C13.67 99.3899 13.31 100.22 13.3 101.4C13.3 102.44 13.8 103.29 16.57 103.31L16.59 99.4099H16.58Z" fill="#996F8F"/>
<path d="M22.3199 90.2701L15.3799 90.2501C14.3099 90.2501 13.4399 90.6201 13.4399 92.0101C13.4199 93.7901 15.0099 94.0501 16.3799 94.0501L22.2999 94.0701V95.7001L14.3699 95.6701C13.6699 95.6701 12.9799 95.7001 12.2799 95.7701L12.2999 94.0401L13.5799 94.0601V93.9801C12.4499 93.3301 12.1099 92.5901 12.1099 91.2901C12.1099 89.1501 13.3999 88.6201 15.3799 88.6201L22.3199 88.6401V90.2701Z" fill="#996F8F"/>
<path d="M12.3202 86.29H10.3902L9.66016 84.66L12.3102 84.68L12.3302 82.5H13.5602L13.5402 84.68L19.6702 84.7C20.3002 84.7 21.1102 84.7 21.1302 83.21C21.1302 83.1 21.0802 82.84 21.0502 82.48H22.3002C22.3302 83.01 22.4602 83.55 22.4602 84.08C22.4402 85.63 21.8102 86.33 20.6602 86.31L13.5402 86.29V87.94H12.3102V86.29H12.3202Z" fill="#996F8F"/>
<path d="M17.4899 81.9398C14.5499 81.9398 12.1399 81.5998 12.1499 78.1198C12.1499 74.6598 14.5799 74.3198 17.5099 74.3298C21.9299 74.3498 22.5599 76.0298 22.5599 78.1498C22.5599 80.2698 21.9099 81.9498 17.4999 81.9398M16.8099 76.0298C14.0799 76.0298 13.4799 76.8698 13.4799 78.1198C13.4799 79.3698 14.0599 80.2198 16.7999 80.2398C20.0499 80.2398 21.2299 79.8398 21.2299 78.1498C21.2299 76.4698 20.0699 76.0498 16.8099 76.0298Z" fill="#996F8F"/>
<path d="M22.3801 68.41L8.06006 68.36L8.08006 63.7C8.08006 61.73 8.76006 61.05 9.55006 60.51C10.3301 60.03 11.1801 59.94 11.4601 59.94C13.2401 59.96 14.4401 60.57 14.8401 62.41H14.9401C15.1801 60.37 16.4101 59.48 18.3901 59.48C22.0501 59.5 22.4001 62.17 22.4001 63.8L22.3801 68.39V68.41ZM14.1001 66.57V63.92C14.0801 62.48 13.2301 61.78 11.8301 61.78C10.6301 61.78 9.66006 62.44 9.66006 63.98L9.64006 66.55L14.0901 66.57H14.1001ZM20.8001 66.58V64.01C20.8201 62.07 19.4201 61.36 18.3701 61.36C16.0901 61.36 15.7001 62.77 15.6801 64.63V66.57L20.7901 66.59L20.8001 66.58Z" fill="#996F8F"/>
<path d="M20.98 52.2102V52.2402C22.13 52.7402 22.63 53.5202 22.61 54.7602C22.61 56.8802 21.24 57.4902 19.31 57.4902C16.28 57.4702 16.16 54.5002 16.22 52.2202C14.89 52.1702 13.44 52.1602 13.44 53.9002C13.44 54.9802 14.17 55.5702 15.22 55.4702V57.2302C12.97 57.1502 12.21 55.9502 12.21 53.8302C12.23 51.2602 13.55 50.5802 15.24 50.5902H20.06C20.85 50.6102 21.66 50.5302 22.44 50.4102L22.42 52.1902H20.98V52.2102ZM19.44 55.8602C20.41 55.8602 21.28 55.3902 21.28 54.3102C21.28 53.3102 20.68 52.0802 17.45 52.2202C17.47 53.7702 17.32 55.8602 19.44 55.8602Z" fill="#996F8F"/>
<path d="M22.4602 42.7198L15.5202 42.6998C14.4502 42.6998 13.5802 43.0698 13.5802 44.4498C13.5602 46.2498 15.1502 46.4998 16.5202 46.4998L22.4402 46.5198V48.1498L14.5102 48.1198C13.8102 48.1198 13.1202 48.1498 12.4202 48.2198V46.4898L13.7102 46.5098V46.4298C12.5802 45.7798 12.2402 45.0398 12.2402 43.7398C12.2402 41.5998 13.5302 41.0698 15.5102 41.0698L22.4502 41.0898V42.7198H22.4602Z" fill="#996F8F"/>
<path d="M15.6801 33.6902C14.0301 33.6402 13.5901 34.4502 13.5901 35.0702C13.5901 36.3302 14.1901 37.1702 16.9201 37.1902C20.1701 37.2102 21.34 36.7902 21.34 35.1002C21.34 34.7302 20.95 33.6002 19.14 33.6402L19.16 31.9402C21.97 31.8802 22.6901 33.9802 22.67 35.0902C22.67 37.2102 22.0201 38.8902 17.6101 38.8802C14.6801 38.8802 12.2601 38.5402 12.2701 35.0602C12.2701 33.0502 13.4501 31.8902 15.6801 32.0002V33.6802V33.6902Z" fill="#996F8F"/>
<path d="M21.06 24.5798V24.6098C22.21 25.1098 22.71 25.8898 22.69 27.1298C22.69 29.2498 21.31 29.8598 19.39 29.8598C16.36 29.8398 16.24 26.8698 16.3 24.5898C14.97 24.5398 13.52 24.5298 13.52 26.2698C13.52 27.3498 14.25 27.9398 15.3 27.8398V29.5998C13.05 29.5198 12.29 28.3198 12.29 26.1998C12.31 23.6298 13.63 22.9498 15.32 22.9598H20.14C20.93 22.9798 21.74 22.8998 22.52 22.7798L22.5 24.5598H21.06V24.5798ZM19.53 28.2398C20.5 28.2398 21.37 27.7698 21.37 26.6898C21.37 25.6898 20.77 24.4598 17.54 24.5998C17.56 26.1498 17.41 28.2398 19.53 28.2398Z" fill="#996F8F"/>
<path d="M14.0203 18.8099V18.7799C12.5003 18.0999 12.3203 17.2599 12.3203 15.6699H14.0003C13.9803 15.8199 13.9703 15.9799 13.9503 16.1099C13.9203 16.2599 13.9003 16.3999 13.9003 16.5499C13.9003 18.3599 15.2603 18.8099 16.6003 18.8099L22.5203 18.8399L22.5003 20.4599L12.4903 20.4299L12.5103 18.8099H14.0103H14.0203Z" fill="#996F8F"/>
<path d="M8.22998 14.7201V12.8901H9.97998V14.7201H8.22998ZM22.54 13.0301V14.6501L12.53 14.6301V13.0001L22.54 13.0301Z" fill="#996F8F"/>
<path d="M17.7 11.1698C14.76 11.1698 12.34 10.8298 12.36 7.34978C12.36 3.88978 14.79 3.54978 17.72 3.55978C22.14 3.57978 22.77 5.25978 22.77 7.37978C22.77 9.49978 22.12 11.1798 17.71 11.1698M17.02 5.26978C14.29 5.26978 13.69 6.10978 13.69 7.35978C13.67 8.60978 14.27 9.45978 17.01 9.47978C20.26 9.47978 21.43 9.07978 21.44 7.38978C21.44 5.70978 20.28 5.28978 17.02 5.26978Z" fill="#996F8F"/>
<path d="M22.5803 0V1.86H20.5103L20.5303 0H22.5803Z" fill="#996F8F"/>
</g>
<defs>
<clipPath id="clip0_41_1850">
<rect width="30.53" height="690.74" fill="white"/>
</clipPath>
</defs>
</svg>
